<?xml version="1.0" encoding="utf-8" standalone="no"?>
<!DOCTYPE svg PUBLIC "-//W3C//DTD SVG 1.1//EN"
  "http://www.w3.org/Graphics/SVG/1.1/DTD/svg11.dtd">
<!-- Created with matplotlib (http://matplotlib.org/) -->
<svg height="432pt" version="1.1" viewBox="0 0 720 432" width="720pt" xmlns="http://www.w3.org/2000/svg" xmlns:xlink="http://www.w3.org/1999/xlink">
 <defs>
  <style type="text/css">
*{stroke-linecap:butt;stroke-linejoin:round;stroke-miterlimit:100000;}
  </style>
 </defs>
 <g id="figure_1">
  <g id="patch_1">
   <path d="M 0 432 
L 720 432 
L 720 0 
L 0 0 
z
" style="fill:#ffffff;"/>
  </g>
  <g id="axes_1">
   <g id="patch_2">
    <path d="M 90 378 
L 648 378 
L 648 43.2 
L 90 43.2 
z
" style="fill:#ffffff;"/>
   </g>
   <g id="line2d_1">
    <path clip-path="url(#p94020aae23)" d="M 90.360944 -1 
L 90.6975 43.2 
L 91.395 43.645269 
L 92.0925 51.323227 
L 92.79 57.22242 
L 93.4875 65.083455 
L 94.185 76.688929 
L 95.58 105.030936 
L 96.2775 116.958734 
L 96.975 126.838385 
L 98.37 142.252433 
L 99.0675 147.658645 
L 100.4625 156.037393 
L 101.8575 163.804966 
L 102.555 166.539712 
L 103.95 170.300565 
L 104.6475 173.291382 
L 106.0425 177.530462 
L 106.74 179.928384 
L 107.4375 181.393431 
L 108.8325 185.836341 
L 110.2275 190.283962 
L 112.32 195.925899 
L 113.0175 198.202908 
L 113.715 199.454316 
L 114.4125 201.031033 
L 115.11 203.256896 
L 115.8075 203.483253 
L 117.2025 206.57796 
L 118.5975 209.7802 
L 119.295 210.989818 
L 119.9925 212.912535 
L 120.69 213.273873 
L 121.3875 215.977584 
L 122.085 215.526488 
L 122.7825 216.81646 
L 123.48 218.500326 
L 124.1775 218.77468 
L 124.875 220.330764 
L 125.5725 220.965542 
L 126.27 222.668267 
L 126.9675 223.315965 
L 127.665 224.254679 
L 128.3625 226.026518 
L 129.06 226.716763 
L 129.7575 228.731357 
L 130.455 229.99204 
L 131.1525 230.254505 
L 131.85 232.696346 
L 133.245 234.826543 
L 133.9425 236.482146 
L 134.64 236.944897 
L 136.035 239.52955 
L 136.7325 239.646018 
L 137.43 240.70409 
L 138.1275 241.118373 
L 139.5225 242.447206 
L 140.22 243.813951 
L 140.9175 243.656614 
L 142.3125 245.113379 
L 143.01 245.239422 
L 143.7075 245.766059 
L 144.405 245.356089 
L 145.1025 246.646746 
L 145.8 246.469306 
L 147.195 247.560628 
L 147.8925 247.315537 
L 148.59 247.697144 
L 149.2875 247.897667 
L 149.985 247.302833 
L 150.6825 246.28473 
L 151.38 247.617211 
L 152.775 248.764894 
L 153.4725 248.343831 
L 154.8675 250.034985 
L 156.2625 250.995521 
L 156.96 250.555858 
L 157.6575 251.394687 
L 158.355 251.40265 
L 159.0525 251.806175 
L 160.4475 250.715787 
L 161.145 250.9064 
L 161.8425 251.710098 
L 162.54 251.945799 
L 163.2375 251.977186 
L 163.935 252.244018 
L 164.6325 252.827238 
L 165.33 253.658597 
L 166.0275 253.704818 
L 166.725 253.963638 
L 167.4225 254.066533 
L 169.515 254.909523 
L 170.2125 254.330272 
L 171.6075 255.464105 
L 172.305 254.402452 
L 173.7 256.039449 
L 174.3975 256.137138 
L 175.095 256.045842 
L 175.7925 256.899347 
L 176.49 256.38918 
L 177.885 257.188627 
L 178.5825 256.962106 
L 180.675 257.078088 
L 181.3725 257.332138 
L 182.07 258.012898 
L 182.7675 258.143924 
L 183.465 258.031428 
L 184.1625 257.733876 
L 184.86 258.430962 
L 185.5575 257.597246 
L 186.255 258.266388 
L 186.9525 258.727432 
L 187.65 258.957794 
L 188.3475 258.509866 
L 189.045 258.6575 
L 189.7425 259.401962 
L 190.44 258.854605 
L 191.1375 259.579316 
L 191.835 259.601023 
L 192.5325 258.920784 
L 193.23 259.927422 
L 193.9275 260.423648 
L 194.625 259.650798 
L 195.3225 260.394923 
L 196.02 260.211769 
L 196.7175 259.178608 
L 197.415 260.853378 
L 198.1125 261.089956 
L 198.81 260.816083 
L 199.5075 261.017511 
L 200.205 260.885083 
L 200.9025 261.636119 
L 201.6 261.292272 
L 202.2975 261.499033 
L 202.995 261.139145 
L 203.6925 261.819751 
L 205.0875 262.034669 
L 205.785 262.197391 
L 206.4825 261.966961 
L 207.18 262.761312 
L 207.8775 262.907877 
L 208.575 262.708252 
L 209.2725 262.956909 
L 209.97 262.495222 
L 211.365 262.637096 
L 212.0625 263.382551 
L 212.76 262.737138 
L 213.4575 262.425065 
L 214.155 263.781803 
L 214.8525 263.185943 
L 215.55 263.331052 
L 216.2475 264.100178 
L 216.945 264.290249 
L 217.6425 264.026814 
L 218.34 264.3945 
L 219.0375 264.256496 
L 219.735 263.657421 
L 220.4325 265.07155 
L 221.8275 264.227613 
L 222.525 264.75528 
L 223.2225 264.173659 
L 223.92 265.230979 
L 224.6175 264.947985 
L 225.315 265.859287 
L 226.0125 264.615106 
L 226.71 265.293688 
L 227.4075 264.777688 
L 228.105 265.34476 
L 228.8025 266.229491 
L 229.5 266.076421 
L 230.1975 266.236562 
L 230.895 265.987743 
L 231.5925 266.364102 
L 232.29 265.59881 
L 232.9875 266.828469 
L 233.685 266.338914 
L 234.3825 266.950886 
L 235.08 266.299812 
L 235.7775 266.767691 
L 236.475 266.857786 
L 237.1725 267.199347 
L 237.87 267.275241 
L 238.5675 266.945611 
L 239.265 267.745341 
L 239.9625 267.780334 
L 241.3575 267.456094 
L 242.055 268.16376 
L 242.7525 267.957687 
L 243.45 266.685847 
L 244.845 267.238435 
L 246.9375 267.924845 
L 247.635 267.544324 
L 248.3325 267.908563 
L 249.7275 268.184867 
L 250.425 267.669245 
L 251.1225 268.651447 
L 251.82 269.154607 
L 252.5175 267.868446 
L 253.215 268.765614 
L 253.9125 268.949046 
L 255.3075 268.414883 
L 256.005 269.428451 
L 256.7025 269.006571 
L 257.4 268.274299 
L 258.0975 268.996898 
L 258.795 269.138235 
L 259.4925 268.907413 
L 260.19 269.608236 
L 260.8875 269.514595 
L 261.585 270.039917 
L 262.98 268.605337 
L 263.6775 268.776131 
L 264.375 268.116473 
L 265.0725 269.698695 
L 265.77 269.77817 
L 267.165 270.245266 
L 267.8625 270.00765 
L 268.56 270.134791 
L 269.2575 270.699339 
L 270.6525 269.953316 
L 271.35 270.593698 
L 272.0475 270.070098 
L 272.745 270.183717 
L 273.4425 269.465906 
L 274.14 270.058746 
L 274.8375 270.812306 
L 275.535 270.87265 
L 276.2325 270.774242 
L 276.93 271.259878 
L 277.6275 270.974216 
L 279.0225 270.776993 
L 279.72 270.803255 
L 280.4175 271.116884 
L 281.115 271.640998 
L 282.51 271.424808 
L 283.2075 272.237081 
L 283.905 271.252257 
L 284.6025 271.968927 
L 285.3 271.824477 
L 285.9975 271.338042 
L 286.695 271.575942 
L 287.3925 272.091694 
L 288.09 271.924798 
L 288.7875 272.478101 
L 289.485 272.600066 
L 290.1825 271.642453 
L 290.88 272.943758 
L 291.5775 272.1399 
L 292.275 272.693135 
L 292.9725 272.577101 
L 293.67 271.832357 
L 294.3675 272.89117 
L 295.065 272.266975 
L 295.7625 271.796993 
L 296.46 272.672624 
L 297.1575 273.029571 
L 297.855 272.745084 
L 298.5525 273.156658 
L 299.25 273.197901 
L 299.9475 273.364233 
L 300.645 273.333122 
L 301.3425 273.086848 
L 303.435 273.678403 
L 304.1325 273.236969 
L 305.5275 272.624198 
L 306.225 272.82576 
L 306.9225 273.503179 
L 309.015 272.975212 
L 310.41 274.335743 
L 311.1075 273.571475 
L 311.805 273.326858 
L 312.5025 273.240684 
L 313.2 273.898016 
L 313.8975 273.82811 
L 314.595 273.42625 
L 315.2925 274.379308 
L 315.99 273.866499 
L 316.6875 274.101981 
L 318.0825 273.184674 
L 318.78 273.072697 
L 319.4775 273.410632 
L 320.175 273.498107 
L 320.8725 273.264532 
L 322.2675 273.202407 
L 322.965 273.672099 
L 323.6625 273.482715 
L 324.36 273.78954 
L 325.0575 273.895897 
L 325.755 273.773378 
L 326.4525 273.47287 
L 327.15 273.417365 
L 327.8475 273.783344 
L 328.545 274.519361 
L 329.2425 274.509553 
L 329.94 273.964124 
L 330.6375 274.498092 
L 331.335 274.872351 
L 332.73 274.385604 
L 333.4275 274.686249 
L 334.125 273.996641 
L 334.8225 274.445151 
L 336.2175 275.080415 
L 336.915 274.54992 
L 339.705 275.129909 
L 340.4025 274.538738 
L 341.1 275.450991 
L 341.7975 275.296795 
L 342.495 274.921028 
L 343.1925 275.980447 
L 343.89 275.947978 
L 344.5875 275.234382 
L 345.285 274.936297 
L 345.9825 275.737795 
L 346.68 275.16363 
L 348.075 276.181691 
L 349.47 275.558239 
L 350.1675 274.851285 
L 350.865 275.369743 
L 351.5625 275.351762 
L 352.26 275.134658 
L 352.9575 276.016195 
L 353.655 275.776519 
L 354.3525 276.471726 
L 355.05 275.794449 
L 357.1425 276.500458 
L 357.84 276.137133 
L 358.5375 276.613439 
L 359.235 275.84659 
L 359.9325 276.73165 
L 360.63 276.257421 
L 361.3275 276.114938 
L 362.025 276.311338 
L 362.7225 277.106626 
L 363.42 277.292579 
L 364.1175 276.521046 
L 364.815 276.662699 
L 365.5125 276.613284 
L 366.21 276.924473 
L 366.9075 276.603811 
L 367.605 276.888534 
L 368.3025 276.625723 
L 370.395 277.178931 
L 372.4875 276.695463 
L 373.185 277.605383 
L 373.8825 276.743238 
L 374.58 277.032208 
L 375.2775 277.118353 
L 375.975 277.815558 
L 376.6725 277.461393 
L 377.37 276.822205 
L 378.0675 277.323251 
L 378.765 277.331032 
L 379.4625 277.159175 
L 380.16 277.364837 
L 381.555 278.166579 
L 382.2525 277.807384 
L 382.95 277.883237 
L 383.6475 277.294242 
L 384.345 277.664674 
L 385.0425 277.280049 
L 385.74 277.693167 
L 386.4375 277.499226 
L 387.135 277.656121 
L 387.8325 278.477418 
L 388.53 277.532616 
L 389.2275 277.887576 
L 390.6225 278.166086 
L 391.32 277.559697 
L 394.11 278.335572 
L 394.8075 278.831857 
L 395.505 277.858802 
L 396.9 278.569538 
L 397.5975 277.78947 
L 398.295 278.342308 
L 398.9925 277.776328 
L 399.69 277.398859 
L 400.3875 277.748608 
L 401.085 278.246975 
L 401.7825 277.821509 
L 403.1775 278.221459 
L 403.875 278.099163 
L 404.5725 278.476181 
L 405.27 278.377921 
L 405.9675 279.185292 
L 406.665 278.453476 
L 407.3625 278.604695 
L 408.06 279.142198 
L 409.455 278.277601 
L 410.1525 279.289709 
L 410.85 278.775808 
L 411.5475 279.470826 
L 412.245 278.754463 
L 412.9425 279.408466 
L 413.64 279.159219 
L 415.035 279.029799 
L 416.43 279.51164 
L 417.1275 279.298595 
L 417.825 279.208229 
L 419.9175 279.99852 
L 420.615 279.21361 
L 422.01 279.096534 
L 422.7075 279.560106 
L 423.405 279.409694 
L 424.1025 278.817285 
L 424.8 279.592912 
L 426.195 279.644576 
L 426.8925 279.948053 
L 427.59 279.736976 
L 428.2875 279.299269 
L 428.985 279.376638 
L 429.6825 280.451178 
L 430.38 280.121141 
L 431.0775 279.941663 
L 431.775 280.433879 
L 432.4725 280.324258 
L 433.17 280.530683 
L 433.8675 279.686924 
L 434.565 280.273415 
L 435.2625 279.445876 
L 435.96 279.543329 
L 436.6575 278.908789 
L 437.355 280.232908 
L 438.0525 280.910416 
L 438.75 279.60453 
L 439.4475 277.905033 
L 440.145 278.827089 
L 440.8425 278.225012 
L 441.54 278.740233 
L 442.2375 277.942437 
L 442.935 278.566039 
L 443.6325 278.769504 
L 444.33 279.324661 
L 445.0275 279.108596 
L 445.725 279.091513 
L 446.4225 279.531217 
L 447.12 279.025882 
L 447.8175 279.984262 
L 448.515 279.922845 
L 449.2125 280.272398 
L 450.6075 279.848796 
L 451.305 279.650808 
L 452.0025 279.948676 
L 452.7 279.60263 
L 453.3975 280.465145 
L 454.095 280.508603 
L 454.7925 279.529758 
L 455.49 280.075998 
L 456.1875 279.925896 
L 456.885 281.080024 
L 457.5825 280.126928 
L 458.28 280.130288 
L 458.9775 280.296848 
L 459.675 280.183712 
L 460.3725 279.821798 
L 461.07 280.094973 
L 462.465 279.886023 
L 463.1625 280.759228 
L 463.86 280.896846 
L 464.5575 280.225909 
L 465.255 280.811102 
L 465.9525 280.180768 
L 466.65 280.711212 
L 467.3475 280.887274 
L 468.045 280.71787 
L 468.7425 280.355927 
L 469.44 280.338632 
L 470.1375 280.557602 
L 470.835 280.645249 
L 471.5325 280.040414 
L 472.23 280.501723 
L 472.9275 280.619096 
L 473.625 279.952831 
L 474.3225 280.154827 
L 475.02 280.98827 
L 475.7175 280.758065 
L 476.415 280.234932 
L 477.1125 280.168224 
L 477.81 280.765621 
L 478.5075 279.97762 
L 479.205 281.039705 
L 479.9025 281.101446 
L 480.6 280.426866 
L 481.2975 280.885694 
L 481.995 280.599042 
L 482.6925 281.237102 
L 483.39 281.110095 
L 484.0875 280.738419 
L 484.785 280.656132 
L 486.18 281.116262 
L 486.8775 280.713384 
L 487.575 281.339259 
L 488.2725 281.274548 
L 488.97 280.920854 
L 489.6675 281.283848 
L 490.365 281.131217 
L 491.0625 281.433091 
L 491.76 281.472256 
L 492.4575 281.115636 
L 493.155 280.164734 
L 494.55 281.39858 
L 495.2475 281.455766 
L 496.6425 282.059601 
L 497.34 281.015542 
L 498.0375 281.425325 
L 498.735 281.061272 
L 500.13 281.381307 
L 500.8275 281.215802 
L 501.525 281.466303 
L 502.2225 281.956383 
L 502.92 282.688908 
L 503.6175 281.173448 
L 505.0125 281.756567 
L 506.4075 281.584319 
L 507.105 282.155425 
L 507.8025 281.803581 
L 508.5 282.052012 
L 509.895 281.01227 
L 510.5925 281.915353 
L 511.29 281.690769 
L 511.9875 281.618685 
L 512.685 281.88713 
L 513.3825 282.369551 
L 514.08 281.937068 
L 514.7775 282.07741 
L 515.475 282.077352 
L 516.1725 281.025996 
L 516.87 281.079511 
L 517.5675 281.995862 
L 518.265 282.602222 
L 518.9625 282.261465 
L 519.66 282.216339 
L 520.3575 282.54177 
L 521.055 282.138811 
L 521.7525 282.38462 
L 522.45 282.190961 
L 523.1475 281.861134 
L 523.845 282.195866 
L 524.5425 282.097855 
L 525.9375 282.934591 
L 526.635 281.782742 
L 527.3325 282.859711 
L 528.7275 282.636489 
L 529.425 282.717275 
L 530.1225 283.116133 
L 530.82 282.361892 
L 531.5175 283.246725 
L 532.215 282.811069 
L 532.9125 282.688881 
L 534.3075 282.923121 
L 535.005 282.496372 
L 535.7025 282.778326 
L 536.4 282.313449 
L 537.0975 283.082671 
L 537.795 282.98991 
L 538.4925 282.730858 
L 539.19 283.014849 
L 539.8875 282.554189 
L 540.585 282.434076 
L 541.2825 282.747805 
L 541.98 283.317786 
L 542.6775 282.701133 
L 543.375 283.079964 
L 544.0725 282.325796 
L 544.77 282.713334 
L 545.4675 283.588851 
L 546.165 282.5656 
L 546.8625 282.146715 
L 547.56 282.384041 
L 548.2575 283.039252 
L 548.955 283.375965 
L 549.6525 283.839528 
L 550.35 283.205948 
L 551.0475 284.037846 
L 551.745 282.619216 
L 553.14 283.405462 
L 553.8375 283.029511 
L 554.535 282.848407 
L 555.2325 282.5343 
L 555.93 282.993608 
L 556.6275 283.809025 
L 557.325 283.000176 
L 558.0225 283.650147 
L 558.72 282.939101 
L 559.4175 282.733182 
L 560.115 282.865005 
L 560.8125 283.347647 
L 561.51 283.425778 
L 562.2075 282.961891 
L 562.905 283.296895 
L 563.6025 283.917297 
L 564.3 284.089743 
L 565.695 283.34376 
L 566.3925 283.167011 
L 567.09 283.475143 
L 567.7875 283.188054 
L 568.485 283.843844 
L 569.1825 283.846103 
L 569.88 284.14873 
L 570.5775 284.184587 
L 571.275 283.35752 
L 571.9725 284.01906 
L 572.67 284.068277 
L 573.3675 283.644777 
L 574.065 283.412439 
L 574.7625 283.901685 
L 575.46 284.078712 
L 576.1575 283.770705 
L 576.855 284.079776 
L 577.5525 283.724627 
L 578.25 284.116253 
L 578.9475 284.020969 
L 579.645 283.0876 
L 580.3425 283.825837 
L 581.7375 284.169617 
L 582.435 283.485224 
L 583.1325 283.464717 
L 583.83 284.009129 
L 584.5275 283.837253 
L 585.225 282.977954 
L 585.9225 283.880634 
L 586.62 283.976385 
L 587.3175 284.613474 
L 588.015 283.973171 
L 588.7125 282.54348 
L 589.41 283.431621 
L 590.1075 283.048593 
L 590.805 283.755786 
L 591.5025 283.808221 
L 592.2 283.272963 
L 592.8975 283.481272 
L 593.595 283.462693 
L 594.2925 283.027819 
L 594.99 283.712745 
L 595.6875 283.469033 
L 596.385 284.774315 
L 597.0825 284.043921 
L 597.78 284.619257 
L 598.4775 284.634436 
L 599.175 284.824694 
L 599.8725 284.144091 
L 600.57 284.074261 
L 601.2675 283.583245 
L 602.6625 284.404702 
L 603.36 283.22448 
L 604.0575 281.500277 
L 604.755 284.53515 
L 605.4525 284.069223 
L 606.15 284.334609 
L 606.8475 284.176177 
L 607.545 284.801882 
L 608.2425 284.0836 
L 608.94 284.053056 
L 609.6375 284.504284 
L 610.335 284.752842 
L 611.0325 284.77201 
L 611.73 284.340915 
L 612.4275 284.14744 
L 612.4275 284.14744 
" style="fill:none;stroke:#0000ff;stroke-linecap:square;"/>
   </g>
   <g id="line2d_2">
    <path clip-path="url(#p94020aae23)" d="M 90 43.2 
L 90.6975 43.2 
L 91.395 46.585473 
L 92.0925 54.493572 
L 92.79 60.50387 
L 93.4875 68.983579 
L 94.185 80.058118 
L 94.8825 104.707139 
L 95.58 115.612055 
L 96.2775 129.593652 
L 96.975 136.263523 
L 97.6725 144.008445 
L 98.37 145.098462 
L 99.0675 148.703407 
L 99.765 156.235622 
L 100.4625 159.631911 
L 101.16 160.984664 
L 101.8575 163.573568 
L 102.555 172.389828 
L 103.2525 177.57526 
L 103.95 173.608339 
L 104.6475 174.157339 
L 106.0425 185.485155 
L 106.74 179.499482 
L 107.4375 184.325553 
L 108.135 184.923942 
L 108.8325 186.763353 
L 109.53 187.041694 
L 110.2275 191.350974 
L 110.925 191.563023 
L 111.6225 192.691075 
L 112.32 191.435766 
L 113.0175 201.923529 
L 113.715 199.943451 
L 114.4125 201.773243 
L 115.11 206.341807 
L 115.8075 208.083255 
L 116.505 204.044514 
L 117.2025 207.492728 
L 117.9 209.211726 
L 118.5975 206.338654 
L 119.295 215.712833 
L 119.9925 213.72185 
L 120.69 216.675304 
L 121.3875 221.700721 
L 122.085 213.504932 
L 122.7825 217.414141 
L 123.48 216.285201 
L 124.1775 216.454774 
L 124.875 220.648939 
L 125.5725 221.44953 
L 126.27 221.290144 
L 126.9675 223.73003 
L 127.665 230.54885 
L 128.3625 228.491793 
L 129.06 232.347082 
L 129.7575 230.348096 
L 130.455 240.135537 
L 131.1525 234.644026 
L 131.85 238.142568 
L 132.5475 238.24516 
L 133.245 239.937837 
L 133.9425 242.936301 
L 134.64 243.417381 
L 135.3375 244.738125 
L 136.035 248.711172 
L 136.7325 248.378352 
L 137.43 244.621594 
L 138.1275 242.706861 
L 138.825 245.803646 
L 139.5225 250.438013 
L 140.22 247.600072 
L 140.9175 247.681801 
L 141.615 248.656653 
L 142.3125 246.691103 
L 143.01 252.191644 
L 143.7075 250.690302 
L 144.405 247.318059 
L 145.1025 252.280637 
L 145.8 253.500385 
L 147.195 249.144289 
L 147.8925 247.986603 
L 148.59 250.683836 
L 149.2875 252.497754 
L 149.985 253.590764 
L 150.6825 250.793672 
L 151.38 253.423326 
L 152.0775 254.491781 
L 152.775 252.76926 
L 153.4725 251.447299 
L 154.17 251.431414 
L 154.8675 253.218122 
L 155.565 252.603519 
L 156.2625 251.812088 
L 156.96 255.242242 
L 157.6575 254.603961 
L 158.355 253.638268 
L 159.0525 253.79933 
L 159.75 256.906752 
L 160.4475 255.665801 
L 161.145 257.517823 
L 161.8425 257.405972 
L 162.54 256.266186 
L 163.2375 252.065225 
L 164.6325 255.211191 
L 165.33 255.573246 
L 166.0275 258.614475 
L 166.725 259.531956 
L 168.12 254.690908 
L 168.8175 255.693928 
L 169.515 258.518349 
L 170.2125 256.353681 
L 170.91 261.076871 
L 171.6075 256.450526 
L 172.305 256.776791 
L 173.0025 259.225417 
L 173.7 260.157794 
L 174.3975 257.224954 
L 175.095 257.343411 
L 176.49 259.299562 
L 177.1875 256.977794 
L 177.885 262.270118 
L 178.5825 260.710316 
L 179.28 261.079764 
L 179.9775 258.462294 
L 180.675 258.168666 
L 181.3725 258.501606 
L 182.07 261.431403 
L 182.7675 259.978164 
L 183.465 255.76492 
L 184.1625 259.510962 
L 184.86 261.787172 
L 185.5575 257.454813 
L 186.255 262.776073 
L 186.9525 260.562235 
L 187.65 262.205622 
L 188.3475 260.015491 
L 189.045 260.431995 
L 189.7425 262.23798 
L 190.44 259.6963 
L 191.1375 261.975653 
L 191.835 261.002017 
L 192.5325 260.567354 
L 193.23 261.498533 
L 193.9275 263.026227 
L 194.625 262.141045 
L 195.3225 265.38654 
L 196.02 257.117763 
L 196.7175 261.676747 
L 197.415 263.359057 
L 198.1125 260.179436 
L 198.81 262.676425 
L 199.5075 262.877837 
L 200.205 261.289947 
L 200.9025 260.197895 
L 201.6 262.351557 
L 202.2975 262.769697 
L 202.995 259.22843 
L 203.6925 262.77772 
L 204.39 262.677263 
L 205.0875 261.34251 
L 205.785 262.211488 
L 206.4825 263.606377 
L 207.18 260.588537 
L 207.8775 263.824951 
L 208.575 264.584303 
L 209.2725 264.493126 
L 209.97 264.811438 
L 210.6675 260.956578 
L 211.365 265.979192 
L 212.76 260.723756 
L 213.4575 264.319731 
L 214.155 263.876946 
L 214.8525 265.041806 
L 215.55 264.303657 
L 216.2475 265.438903 
L 216.945 264.495531 
L 217.6425 264.081042 
L 218.34 266.717112 
L 219.0375 264.07283 
L 219.735 264.678254 
L 220.4325 263.708141 
L 221.13 263.537431 
L 221.8275 263.746207 
L 222.525 266.511998 
L 223.2225 264.316279 
L 223.92 264.018441 
L 224.6175 265.816664 
L 226.0125 264.462734 
L 226.71 265.693687 
L 227.4075 266.687637 
L 228.105 265.644895 
L 228.8025 266.91112 
L 229.5 261.262927 
L 230.1975 265.19742 
L 231.5925 267.181819 
L 232.29 266.367708 
L 232.9875 264.690308 
L 233.685 265.984451 
L 234.3825 264.0327 
L 235.08 265.46312 
L 235.7775 268.294445 
L 236.475 263.612534 
L 237.1725 266.562815 
L 237.87 265.668074 
L 238.5675 266.491593 
L 239.265 269.746646 
L 239.9625 267.67153 
L 240.66 266.215337 
L 241.3575 266.854277 
L 242.055 268.202899 
L 242.7525 268.581088 
L 243.45 266.175326 
L 244.1475 264.990899 
L 245.5425 266.573631 
L 246.24 266.745748 
L 246.9375 266.045425 
L 247.635 263.682398 
L 248.3325 267.893197 
L 249.03 267.868831 
L 249.7275 268.502991 
L 250.425 265.521999 
L 251.1225 267.961106 
L 252.5175 266.656187 
L 253.215 267.503623 
L 253.9125 265.789793 
L 254.61 267.557453 
L 255.3075 267.089274 
L 256.005 268.039352 
L 256.7025 266.99242 
L 257.4 268.102152 
L 258.0975 268.318541 
L 259.4925 267.903005 
L 260.19 265.62034 
L 260.8875 268.783937 
L 261.585 267.673146 
L 262.2825 267.658509 
L 262.98 266.628169 
L 263.6775 267.522591 
L 264.375 265.504118 
L 265.0725 268.064566 
L 265.77 269.79006 
L 266.4675 266.889987 
L 267.165 269.819335 
L 267.8625 268.150515 
L 268.56 270.116444 
L 269.2575 263.213042 
L 269.955 267.164447 
L 270.6525 268.347018 
L 271.35 266.535934 
L 272.0475 268.263454 
L 272.745 267.246285 
L 273.4425 267.327874 
L 274.14 269.092501 
L 274.8375 268.685615 
L 275.535 268.118975 
L 276.2325 266.450155 
L 276.93 267.108023 
L 278.325 267.179593 
L 279.0225 270.026415 
L 279.72 268.740374 
L 280.4175 270.205237 
L 281.115 269.113604 
L 281.8125 270.081402 
L 282.51 270.294299 
L 283.2075 269.454017 
L 283.905 270.332265 
L 284.6025 271.786681 
L 285.3 270.187586 
L 285.9975 268.194617 
L 286.695 269.217333 
L 288.09 268.937216 
L 288.7875 270.852708 
L 289.485 270.332614 
L 290.1825 271.244427 
L 290.88 270.840984 
L 291.5775 269.076776 
L 292.275 271.018718 
L 292.9725 270.159598 
L 293.67 269.01631 
L 294.3675 269.89813 
L 295.065 271.464717 
L 295.7625 271.616489 
L 296.46 268.586635 
L 297.1575 271.415766 
L 297.855 271.470494 
L 298.5525 268.289406 
L 299.25 270.193084 
L 299.9475 270.457197 
L 300.645 270.348678 
L 301.3425 269.699611 
L 302.04 271.698956 
L 302.7375 269.548537 
L 303.435 269.003279 
L 304.1325 269.328416 
L 304.83 269.015851 
L 305.5275 270.000512 
L 306.225 269.851054 
L 306.9225 268.717045 
L 307.62 269.543638 
L 308.3175 268.656251 
L 309.7125 271.117239 
L 310.41 269.176025 
L 311.1075 270.053335 
L 311.805 268.968387 
L 312.5025 271.4902 
L 313.2 269.371969 
L 313.8975 270.176022 
L 314.595 270.702641 
L 315.2925 270.552625 
L 315.99 268.721675 
L 316.6875 270.95057 
L 318.0825 268.413031 
L 318.78 269.328696 
L 319.4775 269.807791 
L 320.175 269.442543 
L 320.8725 273.525376 
L 321.57 269.215777 
L 322.2675 269.578061 
L 322.965 269.140973 
L 323.6625 270.233644 
L 324.36 271.81395 
L 325.0575 267.301004 
L 325.755 272.060951 
L 326.4525 269.984857 
L 327.15 271.459848 
L 327.8475 271.200993 
L 328.545 270.289839 
L 329.2425 271.232982 
L 330.6375 271.617128 
L 331.335 270.52785 
L 332.0325 269.818597 
L 332.73 266.878952 
L 333.4275 268.919825 
L 334.125 272.914783 
L 334.8225 268.933634 
L 335.52 270.567023 
L 336.2175 271.888315 
L 336.915 270.181999 
L 337.6125 269.694602 
L 339.0075 272.838882 
L 339.705 271.911464 
L 340.4025 269.970449 
L 341.1 269.498688 
L 341.7975 271.731175 
L 342.495 270.132289 
L 343.1925 273.127381 
L 343.89 270.979077 
L 344.5875 268.207099 
L 345.285 271.428048 
L 345.9825 270.385426 
L 346.68 271.995128 
L 347.3775 272.458059 
L 348.075 270.523739 
L 348.7725 270.601885 
L 349.47 269.001872 
L 350.1675 269.933691 
L 350.865 272.487862 
L 351.5625 270.182517 
L 352.26 271.861046 
L 352.9575 271.703227 
L 353.655 269.499336 
L 354.3525 269.015831 
L 355.05 271.459199 
L 355.7475 271.922629 
L 356.445 272.790938 
L 357.1425 271.64313 
L 357.84 272.707484 
L 358.5375 271.461873 
L 359.235 273.058214 
L 359.9325 271.72428 
L 361.3275 271.744235 
L 362.025 272.325862 
L 362.7225 271.615162 
L 363.42 273.183645 
L 364.1175 270.507595 
L 364.815 273.952297 
L 365.5125 273.449425 
L 366.21 272.699582 
L 367.605 271.916393 
L 368.3025 271.282971 
L 369 272.623331 
L 369.6975 275.876938 
L 370.395 272.951272 
L 371.79 271.440062 
L 372.4875 271.4408 
L 373.185 274.496936 
L 373.8825 272.903548 
L 374.58 271.961173 
L 375.2775 272.991163 
L 375.975 273.030486 
L 376.6725 272.73196 
L 377.37 275.384333 
L 378.0675 272.73623 
L 379.4625 272.234795 
L 380.16 272.533032 
L 380.8575 271.68801 
L 381.555 273.330479 
L 382.2525 272.13366 
L 382.95 272.978621 
L 383.6475 272.629408 
L 384.345 270.971114 
L 385.0425 272.958476 
L 385.74 273.098325 
L 386.4375 271.291432 
L 387.135 272.826559 
L 387.8325 274.048742 
L 388.53 272.301038 
L 389.2275 272.605521 
L 389.925 275.137093 
L 390.6225 272.118144 
L 391.32 274.977707 
L 392.0175 274.160414 
L 392.715 272.290341 
L 393.4125 276.371818 
L 394.11 273.1682 
L 394.8075 272.531884 
L 395.505 274.76062 
L 396.2025 273.957086 
L 396.9 273.978598 
L 397.5975 271.185987 
L 398.295 274.348147 
L 398.9925 272.339193 
L 399.69 274.852645 
L 400.3875 272.847433 
L 401.085 272.892203 
L 401.7825 273.612612 
L 402.48 274.17134 
L 403.1775 273.585851 
L 403.875 273.169746 
L 404.5725 275.359718 
L 405.27 273.463783 
L 405.9675 272.79046 
L 406.665 271.708166 
L 407.3625 272.777658 
L 408.06 273.162592 
L 408.7575 274.290445 
L 409.455 273.094893 
L 410.1525 272.505084 
L 410.85 270.644231 
L 411.5475 276.078111 
L 412.245 273.906259 
L 412.9425 274.035322 
L 413.64 273.376517 
L 414.3375 274.23853 
L 415.035 273.235131 
L 415.7325 274.351509 
L 416.43 273.610646 
L 417.1275 274.017192 
L 417.825 275.654822 
L 418.5225 273.656764 
L 419.22 272.869643 
L 419.9175 273.954951 
L 420.615 274.227465 
L 421.3125 275.20585 
L 422.01 274.181896 
L 422.7075 275.60173 
L 423.405 275.498329 
L 424.1025 274.994001 
L 424.8 272.687828 
L 425.4975 274.758814 
L 426.195 272.188777 
L 426.8925 276.707332 
L 428.2875 272.998467 
L 428.985 273.809384 
L 429.6825 273.626132 
L 430.38 274.145846 
L 431.0775 277.423879 
L 431.775 276.627988 
L 432.4725 274.705672 
L 433.17 275.184647 
L 433.8675 274.151793 
L 434.565 274.678512 
L 435.2625 273.534525 
L 435.96 274.3916 
L 436.6575 272.00781 
L 437.355 273.705964 
L 438.0525 274.002555 
L 438.75 271.785424 
L 439.4475 272.744362 
L 440.145 274.36917 
L 440.8425 273.193005 
L 441.54 273.573628 
L 442.2375 272.314747 
L 442.935 274.625221 
L 443.6325 273.976543 
L 445.0275 275.141832 
L 445.725 273.217191 
L 446.4225 272.471728 
L 447.12 272.770135 
L 447.8175 276.017645 
L 448.515 274.656082 
L 449.2125 273.790945 
L 449.91 272.69131 
L 450.6075 274.356997 
L 451.305 275.654881 
L 452.0025 273.773534 
L 452.7 273.861419 
L 453.3975 271.678561 
L 454.095 274.269102 
L 454.7925 273.550071 
L 455.49 275.129679 
L 456.1875 275.513566 
L 456.885 274.006755 
L 458.28 275.591293 
L 458.9775 275.942642 
L 459.675 275.711565 
L 460.3725 275.027706 
L 461.07 275.101791 
L 462.465 273.771658 
L 463.1625 274.661939 
L 463.86 275.057629 
L 464.5575 276.503255 
L 465.255 273.359854 
L 465.9525 275.068385 
L 466.65 274.497215 
L 467.3475 274.148241 
L 468.045 274.163088 
L 468.7425 276.088388 
L 469.44 275.91177 
L 470.835 273.638973 
L 471.5325 273.701404 
L 472.23 276.6048 
L 472.9275 272.293943 
L 473.625 270.947287 
L 474.3225 275.728697 
L 475.02 274.299624 
L 475.7175 277.240327 
L 476.415 276.232577 
L 477.1125 275.447592 
L 477.81 274.259055 
L 478.5075 275.118234 
L 479.205 276.586141 
L 479.9025 276.470199 
L 480.6 273.848418 
L 481.2975 275.001574 
L 481.995 275.65998 
L 482.6925 275.125448 
L 483.39 276.63596 
L 484.0875 273.817047 
L 484.785 274.318103 
L 485.4825 274.614884 
L 486.8775 275.863877 
L 487.575 274.379846 
L 488.2725 273.705385 
L 488.97 276.340836 
L 489.6675 276.396243 
L 491.0625 273.302441 
L 491.76 275.658573 
L 492.4575 275.484351 
L 493.155 275.709131 
L 493.8525 272.51145 
L 494.55 276.262271 
L 495.2475 272.712393 
L 495.945 275.07058 
L 496.6425 276.765422 
L 497.34 274.901965 
L 498.0375 275.49377 
L 498.735 274.898413 
L 499.4325 275.020182 
L 500.8275 274.991307 
L 501.525 274.847217 
L 502.2225 275.498908 
L 502.92 274.552452 
L 503.6175 274.827211 
L 504.315 276.552346 
L 505.0125 273.635182 
L 505.71 274.905587 
L 506.4075 273.51424 
L 507.105 276.19992 
L 507.8025 277.469607 
L 508.5 274.727902 
L 509.1975 275.905863 
L 509.895 275.23738 
L 510.5925 277.160045 
L 511.29 274.492226 
L 511.9875 275.719717 
L 512.685 276.074588 
L 513.3825 275.950474 
L 514.08 275.53423 
L 514.7775 274.486958 
L 515.475 274.627974 
L 516.1725 275.220856 
L 516.87 274.087286 
L 517.5675 277.156553 
L 518.265 275.123164 
L 518.9625 275.989438 
L 519.66 276.462336 
L 520.3575 275.104146 
L 521.055 276.505171 
L 521.7525 276.223767 
L 522.45 277.170482 
L 523.1475 275.132982 
L 523.845 276.350505 
L 524.5425 275.827777 
L 525.24 275.933432 
L 525.9375 277.370048 
L 526.635 273.967253 
L 527.3325 275.911182 
L 528.03 275.949217 
L 528.7275 275.0032 
L 529.425 277.8866 
L 530.1225 277.167938 
L 530.82 277.74282 
L 531.5175 275.015044 
L 532.215 274.834146 
L 532.9125 276.434817 
L 533.61 277.442288 
L 534.3075 273.148354 
L 535.005 274.163268 
L 535.7025 275.651918 
L 536.4 275.617884 
L 537.0975 275.273898 
L 537.795 277.347498 
L 539.19 274.433706 
L 539.8875 276.170296 
L 540.585 276.965069 
L 541.2825 276.70357 
L 541.98 276.292494 
L 542.6775 275.407561 
L 543.375 276.758897 
L 544.77 274.684738 
L 545.4675 276.140881 
L 546.165 274.900119 
L 546.8625 277.092136 
L 547.56 277.651113 
L 548.2575 276.027922 
L 548.955 275.954256 
L 549.6525 276.089316 
L 551.0475 275.872887 
L 551.745 276.470299 
L 552.4425 276.021237 
L 553.14 274.672156 
L 553.8375 272.965271 
L 554.535 274.659375 
L 555.2325 273.419731 
L 555.93 274.992175 
L 556.6275 274.052304 
L 557.325 275.913187 
L 558.0225 276.411639 
L 558.72 275.803441 
L 559.4175 276.683714 
L 560.115 275.410305 
L 560.8125 277.100318 
L 561.51 277.695924 
L 562.2075 276.851531 
L 562.905 277.248918 
L 563.6025 277.049381 
L 564.3 276.642885 
L 564.9975 277.819868 
L 565.695 277.051437 
L 566.3925 274.967011 
L 567.09 275.531426 
L 567.7875 277.534792 
L 568.485 275.92076 
L 569.1825 276.389249 
L 569.88 275.196131 
L 570.5775 275.879173 
L 571.275 276.866787 
L 571.9725 274.516243 
L 572.67 277.241225 
L 573.3675 275.821431 
L 574.065 275.926887 
L 574.7625 276.632688 
L 575.46 276.635621 
L 576.1575 276.843718 
L 576.855 277.811467 
L 577.5525 275.573093 
L 578.25 274.738539 
L 578.9475 277.477011 
L 579.645 277.811507 
L 580.3425 276.554272 
L 581.04 276.25807 
L 581.7375 275.131535 
L 582.435 278.314449 
L 583.1325 275.172115 
L 583.83 275.990884 
L 584.5275 275.977015 
L 585.225 276.724264 
L 585.9225 277.289477 
L 586.62 276.720442 
L 587.3175 277.64814 
L 588.015 277.917172 
L 588.7125 277.131568 
L 589.41 277.006367 
L 590.1075 277.542794 
L 590.805 275.527135 
L 591.5025 274.608298 
L 592.8975 277.249915 
L 593.595 274.298696 
L 594.2925 275.888243 
L 594.99 276.296974 
L 596.385 274.418989 
L 597.0825 277.132237 
L 598.4775 275.121497 
L 599.8725 276.747961 
L 600.57 274.811447 
L 601.2675 275.980577 
L 601.965 274.755112 
L 602.6625 276.011728 
L 603.36 273.254248 
L 604.0575 275.480808 
L 604.755 274.668305 
L 605.4525 276.974677 
L 606.15 277.145877 
L 606.8475 276.348719 
L 607.545 275.791328 
L 608.2425 277.413382 
L 608.94 274.127856 
L 609.6375 277.693389 
L 610.335 276.827684 
L 611.0325 278.21504 
L 611.73 276.345007 
L 612.4275 277.761578 
L 612.4275 277.761578 
" style="fill:none;stroke:#008000;stroke-linecap:square;"/>
   </g>
   <g id="patch_3">
    <path d="M 90 43.2 
L 648 43.2 
" style="fill:none;stroke:#000000;stroke-linecap:square;stroke-linejoin:miter;"/>
   </g>
   <g id="patch_4">
    <path d="M 648 378 
L 648 43.2 
" style="fill:none;stroke:#000000;stroke-linecap:square;stroke-linejoin:miter;"/>
   </g>
   <g id="patch_5">
    <path d="M 90 378 
L 648 378 
" style="fill:none;stroke:#000000;stroke-linecap:square;stroke-linejoin:miter;"/>
   </g>
   <g id="patch_6">
    <path d="M 90 378 
L 90 43.2 
" style="fill:none;stroke:#000000;stroke-linecap:square;stroke-linejoin:miter;"/>
   </g>
   <g id="matplotlib.axis_1">
    <g id="xtick_1">
     <g id="line2d_3">
      <defs>
       <path d="M 0 0 
L 0 -4 
" id="maa5a11b1bb" style="stroke:#000000;stroke-width:0.5;"/>
      </defs>
      <g>
       <use style="stroke:#000000;stroke-width:0.5;" x="90.0" xlink:href="#maa5a11b1bb" y="378.0"/>
      </g>
     </g>
     <g id="line2d_4">
      <defs>
       <path d="M 0 0 
L 0 4 
" id="mecfde72d4d" style="stroke:#000000;stroke-width:0.5;"/>
      </defs>
      <g>
       <use style="stroke:#000000;stroke-width:0.5;" x="90.0" xlink:href="#mecfde72d4d" y="43.2"/>
      </g>
     </g>
     <g id="text_1">
      <!-- 0 -->
      <defs>
       <path d="M 31.78125 66.40625 
Q 24.171875 66.40625 20.328125 58.90625 
Q 16.5 51.421875 16.5 36.375 
Q 16.5 21.390625 20.328125 13.890625 
Q 24.171875 6.390625 31.78125 6.390625 
Q 39.453125 6.390625 43.28125 13.890625 
Q 47.125 21.390625 47.125 36.375 
Q 47.125 51.421875 43.28125 58.90625 
Q 39.453125 66.40625 31.78125 66.40625 
M 31.78125 74.21875 
Q 44.046875 74.21875 50.515625 64.515625 
Q 56.984375 54.828125 56.984375 36.375 
Q 56.984375 17.96875 50.515625 8.265625 
Q 44.046875 -1.421875 31.78125 -1.421875 
Q 19.53125 -1.421875 13.0625 8.265625 
Q 6.59375 17.96875 6.59375 36.375 
Q 6.59375 54.828125 13.0625 64.515625 
Q 19.53125 74.21875 31.78125 74.21875 
" id="BitstreamVeraSans-Roman-30"/>
      </defs>
      <g transform="translate(86.81875 389.5984375)scale(0.1 -0.1)">
       <use xlink:href="#BitstreamVeraSans-Roman-30"/>
      </g>
     </g>
    </g>
    <g id="xtick_2">
     <g id="line2d_5">
      <g>
       <use style="stroke:#000000;stroke-width:0.5;" x="159.75" xlink:href="#maa5a11b1bb" y="378.0"/>
      </g>
     </g>
     <g id="line2d_6">
      <g>
       <use style="stroke:#000000;stroke-width:0.5;" x="159.75" xlink:href="#mecfde72d4d" y="43.2"/>
      </g>
     </g>
     <g id="text_2">
      <!-- 100 -->
      <defs>
       <path d="M 12.40625 8.296875 
L 28.515625 8.296875 
L 28.515625 63.921875 
L 10.984375 60.40625 
L 10.984375 69.390625 
L 28.421875 72.90625 
L 38.28125 72.90625 
L 38.28125 8.296875 
L 54.390625 8.296875 
L 54.390625 0 
L 12.40625 0 
z
" id="BitstreamVeraSans-Roman-31"/>
      </defs>
      <g transform="translate(150.20625 389.5984375)scale(0.1 -0.1)">
       <use xlink:href="#BitstreamVeraSans-Roman-31"/>
       <use x="63.623046875" xlink:href="#BitstreamVeraSans-Roman-30"/>
       <use x="127.24609375" xlink:href="#BitstreamVeraSans-Roman-30"/>
      </g>
     </g>
    </g>
    <g id="xtick_3">
     <g id="line2d_7">
      <g>
       <use style="stroke:#000000;stroke-width:0.5;" x="229.5" xlink:href="#maa5a11b1bb" y="378.0"/>
      </g>
     </g>
     <g id="line2d_8">
      <g>
       <use style="stroke:#000000;stroke-width:0.5;" x="229.5" xlink:href="#mecfde72d4d" y="43.2"/>
      </g>
     </g>
     <g id="text_3">
      <!-- 200 -->
      <defs>
       <path d="M 19.1875 8.296875 
L 53.609375 8.296875 
L 53.609375 0 
L 7.328125 0 
L 7.328125 8.296875 
Q 12.9375 14.109375 22.625 23.890625 
Q 32.328125 33.6875 34.8125 36.53125 
Q 39.546875 41.84375 41.421875 45.53125 
Q 43.3125 49.21875 43.3125 52.78125 
Q 43.3125 58.59375 39.234375 62.25 
Q 35.15625 65.921875 28.609375 65.921875 
Q 23.96875 65.921875 18.8125 64.3125 
Q 13.671875 62.703125 7.8125 59.421875 
L 7.8125 69.390625 
Q 13.765625 71.78125 18.9375 73 
Q 24.125 74.21875 28.421875 74.21875 
Q 39.75 74.21875 46.484375 68.546875 
Q 53.21875 62.890625 53.21875 53.421875 
Q 53.21875 48.921875 51.53125 44.890625 
Q 49.859375 40.875 45.40625 35.40625 
Q 44.1875 33.984375 37.640625 27.21875 
Q 31.109375 20.453125 19.1875 8.296875 
" id="BitstreamVeraSans-Roman-32"/>
      </defs>
      <g transform="translate(219.95625 389.5984375)scale(0.1 -0.1)">
       <use xlink:href="#BitstreamVeraSans-Roman-32"/>
       <use x="63.623046875" xlink:href="#BitstreamVeraSans-Roman-30"/>
       <use x="127.24609375" xlink:href="#BitstreamVeraSans-Roman-30"/>
      </g>
     </g>
    </g>
    <g id="xtick_4">
     <g id="line2d_9">
      <g>
       <use style="stroke:#000000;stroke-width:0.5;" x="299.25" xlink:href="#maa5a11b1bb" y="378.0"/>
      </g>
     </g>
     <g id="line2d_10">
      <g>
       <use style="stroke:#000000;stroke-width:0.5;" x="299.25" xlink:href="#mecfde72d4d" y="43.2"/>
      </g>
     </g>
     <g id="text_4">
      <!-- 300 -->
      <defs>
       <path d="M 40.578125 39.3125 
Q 47.65625 37.796875 51.625 33 
Q 55.609375 28.21875 55.609375 21.1875 
Q 55.609375 10.40625 48.1875 4.484375 
Q 40.765625 -1.421875 27.09375 -1.421875 
Q 22.515625 -1.421875 17.65625 -0.515625 
Q 12.796875 0.390625 7.625 2.203125 
L 7.625 11.71875 
Q 11.71875 9.328125 16.59375 8.109375 
Q 21.484375 6.890625 26.8125 6.890625 
Q 36.078125 6.890625 40.9375 10.546875 
Q 45.796875 14.203125 45.796875 21.1875 
Q 45.796875 27.640625 41.28125 31.265625 
Q 36.765625 34.90625 28.71875 34.90625 
L 20.21875 34.90625 
L 20.21875 43.015625 
L 29.109375 43.015625 
Q 36.375 43.015625 40.234375 45.921875 
Q 44.09375 48.828125 44.09375 54.296875 
Q 44.09375 59.90625 40.109375 62.90625 
Q 36.140625 65.921875 28.71875 65.921875 
Q 24.65625 65.921875 20.015625 65.03125 
Q 15.375 64.15625 9.8125 62.3125 
L 9.8125 71.09375 
Q 15.4375 72.65625 20.34375 73.4375 
Q 25.25 74.21875 29.59375 74.21875 
Q 40.828125 74.21875 47.359375 69.109375 
Q 53.90625 64.015625 53.90625 55.328125 
Q 53.90625 49.265625 50.4375 45.09375 
Q 46.96875 40.921875 40.578125 39.3125 
" id="BitstreamVeraSans-Roman-33"/>
      </defs>
      <g transform="translate(289.70625 389.5984375)scale(0.1 -0.1)">
       <use xlink:href="#BitstreamVeraSans-Roman-33"/>
       <use x="63.623046875" xlink:href="#BitstreamVeraSans-Roman-30"/>
       <use x="127.24609375" xlink:href="#BitstreamVeraSans-Roman-30"/>
      </g>
     </g>
    </g>
    <g id="xtick_5">
     <g id="line2d_11">
      <g>
       <use style="stroke:#000000;stroke-width:0.5;" x="369.0" xlink:href="#maa5a11b1bb" y="378.0"/>
      </g>
     </g>
     <g id="line2d_12">
      <g>
       <use style="stroke:#000000;stroke-width:0.5;" x="369.0" xlink:href="#mecfde72d4d" y="43.2"/>
      </g>
     </g>
     <g id="text_5">
      <!-- 400 -->
      <defs>
       <path d="M 37.796875 64.3125 
L 12.890625 25.390625 
L 37.796875 25.390625 
z
M 35.203125 72.90625 
L 47.609375 72.90625 
L 47.609375 25.390625 
L 58.015625 25.390625 
L 58.015625 17.1875 
L 47.609375 17.1875 
L 47.609375 0 
L 37.796875 0 
L 37.796875 17.1875 
L 4.890625 17.1875 
L 4.890625 26.703125 
z
" id="BitstreamVeraSans-Roman-34"/>
      </defs>
      <g transform="translate(359.45625 389.5984375)scale(0.1 -0.1)">
       <use xlink:href="#BitstreamVeraSans-Roman-34"/>
       <use x="63.623046875" xlink:href="#BitstreamVeraSans-Roman-30"/>
       <use x="127.24609375" xlink:href="#BitstreamVeraSans-Roman-30"/>
      </g>
     </g>
    </g>
    <g id="xtick_6">
     <g id="line2d_13">
      <g>
       <use style="stroke:#000000;stroke-width:0.5;" x="438.75" xlink:href="#maa5a11b1bb" y="378.0"/>
      </g>
     </g>
     <g id="line2d_14">
      <g>
       <use style="stroke:#000000;stroke-width:0.5;" x="438.75" xlink:href="#mecfde72d4d" y="43.2"/>
      </g>
     </g>
     <g id="text_6">
      <!-- 500 -->
      <defs>
       <path d="M 10.796875 72.90625 
L 49.515625 72.90625 
L 49.515625 64.59375 
L 19.828125 64.59375 
L 19.828125 46.734375 
Q 21.96875 47.46875 24.109375 47.828125 
Q 26.265625 48.1875 28.421875 48.1875 
Q 40.625 48.1875 47.75 41.5 
Q 54.890625 34.8125 54.890625 23.390625 
Q 54.890625 11.625 47.5625 5.09375 
Q 40.234375 -1.421875 26.90625 -1.421875 
Q 22.3125 -1.421875 17.546875 -0.640625 
Q 12.796875 0.140625 7.71875 1.703125 
L 7.71875 11.625 
Q 12.109375 9.234375 16.796875 8.0625 
Q 21.484375 6.890625 26.703125 6.890625 
Q 35.15625 6.890625 40.078125 11.328125 
Q 45.015625 15.765625 45.015625 23.390625 
Q 45.015625 31 40.078125 35.4375 
Q 35.15625 39.890625 26.703125 39.890625 
Q 22.75 39.890625 18.8125 39.015625 
Q 14.890625 38.140625 10.796875 36.28125 
z
" id="BitstreamVeraSans-Roman-35"/>
      </defs>
      <g transform="translate(429.20625 389.5984375)scale(0.1 -0.1)">
       <use xlink:href="#BitstreamVeraSans-Roman-35"/>
       <use x="63.623046875" xlink:href="#BitstreamVeraSans-Roman-30"/>
       <use x="127.24609375" xlink:href="#BitstreamVeraSans-Roman-30"/>
      </g>
     </g>
    </g>
    <g id="xtick_7">
     <g id="line2d_15">
      <g>
       <use style="stroke:#000000;stroke-width:0.5;" x="508.5" xlink:href="#maa5a11b1bb" y="378.0"/>
      </g>
     </g>
     <g id="line2d_16">
      <g>
       <use style="stroke:#000000;stroke-width:0.5;" x="508.5" xlink:href="#mecfde72d4d" y="43.2"/>
      </g>
     </g>
     <g id="text_7">
      <!-- 600 -->
      <defs>
       <path d="M 33.015625 40.375 
Q 26.375 40.375 22.484375 35.828125 
Q 18.609375 31.296875 18.609375 23.390625 
Q 18.609375 15.53125 22.484375 10.953125 
Q 26.375 6.390625 33.015625 6.390625 
Q 39.65625 6.390625 43.53125 10.953125 
Q 47.40625 15.53125 47.40625 23.390625 
Q 47.40625 31.296875 43.53125 35.828125 
Q 39.65625 40.375 33.015625 40.375 
M 52.59375 71.296875 
L 52.59375 62.3125 
Q 48.875 64.0625 45.09375 64.984375 
Q 41.3125 65.921875 37.59375 65.921875 
Q 27.828125 65.921875 22.671875 59.328125 
Q 17.53125 52.734375 16.796875 39.40625 
Q 19.671875 43.65625 24.015625 45.921875 
Q 28.375 48.1875 33.59375 48.1875 
Q 44.578125 48.1875 50.953125 41.515625 
Q 57.328125 34.859375 57.328125 23.390625 
Q 57.328125 12.15625 50.6875 5.359375 
Q 44.046875 -1.421875 33.015625 -1.421875 
Q 20.359375 -1.421875 13.671875 8.265625 
Q 6.984375 17.96875 6.984375 36.375 
Q 6.984375 53.65625 15.1875 63.9375 
Q 23.390625 74.21875 37.203125 74.21875 
Q 40.921875 74.21875 44.703125 73.484375 
Q 48.484375 72.75 52.59375 71.296875 
" id="BitstreamVeraSans-Roman-36"/>
      </defs>
      <g transform="translate(498.95625 389.5984375)scale(0.1 -0.1)">
       <use xlink:href="#BitstreamVeraSans-Roman-36"/>
       <use x="63.623046875" xlink:href="#BitstreamVeraSans-Roman-30"/>
       <use x="127.24609375" xlink:href="#BitstreamVeraSans-Roman-30"/>
      </g>
     </g>
    </g>
    <g id="xtick_8">
     <g id="line2d_17">
      <g>
       <use style="stroke:#000000;stroke-width:0.5;" x="578.25" xlink:href="#maa5a11b1bb" y="378.0"/>
      </g>
     </g>
     <g id="line2d_18">
      <g>
       <use style="stroke:#000000;stroke-width:0.5;" x="578.25" xlink:href="#mecfde72d4d" y="43.2"/>
      </g>
     </g>
     <g id="text_8">
      <!-- 700 -->
      <defs>
       <path d="M 8.203125 72.90625 
L 55.078125 72.90625 
L 55.078125 68.703125 
L 28.609375 0 
L 18.3125 0 
L 43.21875 64.59375 
L 8.203125 64.59375 
z
" id="BitstreamVeraSans-Roman-37"/>
      </defs>
      <g transform="translate(568.70625 389.5984375)scale(0.1 -0.1)">
       <use xlink:href="#BitstreamVeraSans-Roman-37"/>
       <use x="63.623046875" xlink:href="#BitstreamVeraSans-Roman-30"/>
       <use x="127.24609375" xlink:href="#BitstreamVeraSans-Roman-30"/>
      </g>
     </g>
    </g>
    <g id="xtick_9">
     <g id="line2d_19">
      <g>
       <use style="stroke:#000000;stroke-width:0.5;" x="648.0" xlink:href="#maa5a11b1bb" y="378.0"/>
      </g>
     </g>
     <g id="line2d_20">
      <g>
       <use style="stroke:#000000;stroke-width:0.5;" x="648.0" xlink:href="#mecfde72d4d" y="43.2"/>
      </g>
     </g>
     <g id="text_9">
      <!-- 800 -->
      <defs>
       <path d="M 31.78125 34.625 
Q 24.75 34.625 20.71875 30.859375 
Q 16.703125 27.09375 16.703125 20.515625 
Q 16.703125 13.921875 20.71875 10.15625 
Q 24.75 6.390625 31.78125 6.390625 
Q 38.8125 6.390625 42.859375 10.171875 
Q 46.921875 13.96875 46.921875 20.515625 
Q 46.921875 27.09375 42.890625 30.859375 
Q 38.875 34.625 31.78125 34.625 
M 21.921875 38.8125 
Q 15.578125 40.375 12.03125 44.71875 
Q 8.5 49.078125 8.5 55.328125 
Q 8.5 64.0625 14.71875 69.140625 
Q 20.953125 74.21875 31.78125 74.21875 
Q 42.671875 74.21875 48.875 69.140625 
Q 55.078125 64.0625 55.078125 55.328125 
Q 55.078125 49.078125 51.53125 44.71875 
Q 48 40.375 41.703125 38.8125 
Q 48.828125 37.15625 52.796875 32.3125 
Q 56.78125 27.484375 56.78125 20.515625 
Q 56.78125 9.90625 50.3125 4.234375 
Q 43.84375 -1.421875 31.78125 -1.421875 
Q 19.734375 -1.421875 13.25 4.234375 
Q 6.78125 9.90625 6.78125 20.515625 
Q 6.78125 27.484375 10.78125 32.3125 
Q 14.796875 37.15625 21.921875 38.8125 
M 18.3125 54.390625 
Q 18.3125 48.734375 21.84375 45.5625 
Q 25.390625 42.390625 31.78125 42.390625 
Q 38.140625 42.390625 41.71875 45.5625 
Q 45.3125 48.734375 45.3125 54.390625 
Q 45.3125 60.0625 41.71875 63.234375 
Q 38.140625 66.40625 31.78125 66.40625 
Q 25.390625 66.40625 21.84375 63.234375 
Q 18.3125 60.0625 18.3125 54.390625 
" id="BitstreamVeraSans-Roman-38"/>
      </defs>
      <g transform="translate(638.45625 389.5984375)scale(0.1 -0.1)">
       <use xlink:href="#BitstreamVeraSans-Roman-38"/>
       <use x="63.623046875" xlink:href="#BitstreamVeraSans-Roman-30"/>
       <use x="127.24609375" xlink:href="#BitstreamVeraSans-Roman-30"/>
      </g>
     </g>
    </g>
    <g id="text_10">
     <!-- Epoch -->
     <defs>
      <path d="M 9.8125 72.90625 
L 55.90625 72.90625 
L 55.90625 64.59375 
L 19.671875 64.59375 
L 19.671875 43.015625 
L 54.390625 43.015625 
L 54.390625 34.71875 
L 19.671875 34.71875 
L 19.671875 8.296875 
L 56.78125 8.296875 
L 56.78125 0 
L 9.8125 0 
z
" id="BitstreamVeraSans-Roman-45"/>
      <path d="M 30.609375 48.390625 
Q 23.390625 48.390625 19.1875 42.75 
Q 14.984375 37.109375 14.984375 27.296875 
Q 14.984375 17.484375 19.15625 11.84375 
Q 23.34375 6.203125 30.609375 6.203125 
Q 37.796875 6.203125 41.984375 11.859375 
Q 46.1875 17.53125 46.1875 27.296875 
Q 46.1875 37.015625 41.984375 42.703125 
Q 37.796875 48.390625 30.609375 48.390625 
M 30.609375 56 
Q 42.328125 56 49.015625 48.375 
Q 55.71875 40.765625 55.71875 27.296875 
Q 55.71875 13.875 49.015625 6.21875 
Q 42.328125 -1.421875 30.609375 -1.421875 
Q 18.84375 -1.421875 12.171875 6.21875 
Q 5.515625 13.875 5.515625 27.296875 
Q 5.515625 40.765625 12.171875 48.375 
Q 18.84375 56 30.609375 56 
" id="BitstreamVeraSans-Roman-6f"/>
      <path d="M 48.78125 52.59375 
L 48.78125 44.1875 
Q 44.96875 46.296875 41.140625 47.34375 
Q 37.3125 48.390625 33.40625 48.390625 
Q 24.65625 48.390625 19.8125 42.84375 
Q 14.984375 37.3125 14.984375 27.296875 
Q 14.984375 17.28125 19.8125 11.734375 
Q 24.65625 6.203125 33.40625 6.203125 
Q 37.3125 6.203125 41.140625 7.25 
Q 44.96875 8.296875 48.78125 10.40625 
L 48.78125 2.09375 
Q 45.015625 0.34375 40.984375 -0.53125 
Q 36.96875 -1.421875 32.421875 -1.421875 
Q 20.0625 -1.421875 12.78125 6.34375 
Q 5.515625 14.109375 5.515625 27.296875 
Q 5.515625 40.671875 12.859375 48.328125 
Q 20.21875 56 33.015625 56 
Q 37.15625 56 41.109375 55.140625 
Q 45.0625 54.296875 48.78125 52.59375 
" id="BitstreamVeraSans-Roman-63"/>
      <path d="M 18.109375 8.203125 
L 18.109375 -20.796875 
L 9.078125 -20.796875 
L 9.078125 54.6875 
L 18.109375 54.6875 
L 18.109375 46.390625 
Q 20.953125 51.265625 25.265625 53.625 
Q 29.59375 56 35.59375 56 
Q 45.5625 56 51.78125 48.09375 
Q 58.015625 40.1875 58.015625 27.296875 
Q 58.015625 14.40625 51.78125 6.484375 
Q 45.5625 -1.421875 35.59375 -1.421875 
Q 29.59375 -1.421875 25.265625 0.953125 
Q 20.953125 3.328125 18.109375 8.203125 
M 48.6875 27.296875 
Q 48.6875 37.203125 44.609375 42.84375 
Q 40.53125 48.484375 33.40625 48.484375 
Q 26.265625 48.484375 22.1875 42.84375 
Q 18.109375 37.203125 18.109375 27.296875 
Q 18.109375 17.390625 22.1875 11.75 
Q 26.265625 6.109375 33.40625 6.109375 
Q 40.53125 6.109375 44.609375 11.75 
Q 48.6875 17.390625 48.6875 27.296875 
" id="BitstreamVeraSans-Roman-70"/>
      <path d="M 54.890625 33.015625 
L 54.890625 0 
L 45.90625 0 
L 45.90625 32.71875 
Q 45.90625 40.484375 42.875 44.328125 
Q 39.84375 48.1875 33.796875 48.1875 
Q 26.515625 48.1875 22.3125 43.546875 
Q 18.109375 38.921875 18.109375 30.90625 
L 18.109375 0 
L 9.078125 0 
L 9.078125 75.984375 
L 18.109375 75.984375 
L 18.109375 46.1875 
Q 21.34375 51.125 25.703125 53.5625 
Q 30.078125 56 35.796875 56 
Q 45.21875 56 50.046875 50.171875 
Q 54.890625 44.34375 54.890625 33.015625 
" id="BitstreamVeraSans-Roman-68"/>
     </defs>
     <g transform="translate(353.6890625 404.2765625)scale(0.1 -0.1)">
      <use xlink:href="#BitstreamVeraSans-Roman-45"/>
      <use x="63.18359375" xlink:href="#BitstreamVeraSans-Roman-70"/>
      <use x="126.66015625" xlink:href="#BitstreamVeraSans-Roman-6f"/>
      <use x="187.841796875" xlink:href="#BitstreamVeraSans-Roman-63"/>
      <use x="242.822265625" xlink:href="#BitstreamVeraSans-Roman-68"/>
     </g>
    </g>
   </g>
   <g id="matplotlib.axis_2">
    <g id="ytick_1">
     <g id="line2d_21">
      <defs>
       <path d="M 0 0 
L 4 0 
" id="m28a208e6c1" style="stroke:#000000;stroke-width:0.5;"/>
      </defs>
      <g>
       <use style="stroke:#000000;stroke-width:0.5;" x="90.0" xlink:href="#m28a208e6c1" y="378.0"/>
      </g>
     </g>
     <g id="line2d_22">
      <defs>
       <path d="M 0 0 
L -4 0 
" id="ma1c1541f6e" style="stroke:#000000;stroke-width:0.5;"/>
      </defs>
      <g>
       <use style="stroke:#000000;stroke-width:0.5;" x="648.0" xlink:href="#ma1c1541f6e" y="378.0"/>
      </g>
     </g>
     <g id="text_11">
      <!-- 0.0 -->
      <defs>
       <path d="M 10.6875 12.40625 
L 21 12.40625 
L 21 0 
L 10.6875 0 
z
" id="BitstreamVeraSans-Roman-2e"/>
      </defs>
      <g transform="translate(70.096875 380.759375)scale(0.1 -0.1)">
       <use xlink:href="#BitstreamVeraSans-Roman-30"/>
       <use x="63.623046875" xlink:href="#BitstreamVeraSans-Roman-2e"/>
       <use x="95.41015625" xlink:href="#BitstreamVeraSans-Roman-30"/>
      </g>
     </g>
    </g>
    <g id="ytick_2">
     <g id="line2d_23">
      <g>
       <use style="stroke:#000000;stroke-width:0.5;" x="90.0" xlink:href="#m28a208e6c1" y="311.04"/>
      </g>
     </g>
     <g id="line2d_24">
      <g>
       <use style="stroke:#000000;stroke-width:0.5;" x="648.0" xlink:href="#ma1c1541f6e" y="311.04"/>
      </g>
     </g>
     <g id="text_12">
      <!-- 0.2 -->
      <g transform="translate(70.096875 313.799375)scale(0.1 -0.1)">
       <use xlink:href="#BitstreamVeraSans-Roman-30"/>
       <use x="63.623046875" xlink:href="#BitstreamVeraSans-Roman-2e"/>
       <use x="95.41015625" xlink:href="#BitstreamVeraSans-Roman-32"/>
      </g>
     </g>
    </g>
    <g id="ytick_3">
     <g id="line2d_25">
      <g>
       <use style="stroke:#000000;stroke-width:0.5;" x="90.0" xlink:href="#m28a208e6c1" y="244.08"/>
      </g>
     </g>
     <g id="line2d_26">
      <g>
       <use style="stroke:#000000;stroke-width:0.5;" x="648.0" xlink:href="#ma1c1541f6e" y="244.08"/>
      </g>
     </g>
     <g id="text_13">
      <!-- 0.4 -->
      <g transform="translate(70.096875 246.839375)scale(0.1 -0.1)">
       <use xlink:href="#BitstreamVeraSans-Roman-30"/>
       <use x="63.623046875" xlink:href="#BitstreamVeraSans-Roman-2e"/>
       <use x="95.41015625" xlink:href="#BitstreamVeraSans-Roman-34"/>
      </g>
     </g>
    </g>
    <g id="ytick_4">
     <g id="line2d_27">
      <g>
       <use style="stroke:#000000;stroke-width:0.5;" x="90.0" xlink:href="#m28a208e6c1" y="177.12"/>
      </g>
     </g>
     <g id="line2d_28">
      <g>
       <use style="stroke:#000000;stroke-width:0.5;" x="648.0" xlink:href="#ma1c1541f6e" y="177.12"/>
      </g>
     </g>
     <g id="text_14">
      <!-- 0.6 -->
      <g transform="translate(70.096875 179.879375)scale(0.1 -0.1)">
       <use xlink:href="#BitstreamVeraSans-Roman-30"/>
       <use x="63.623046875" xlink:href="#BitstreamVeraSans-Roman-2e"/>
       <use x="95.41015625" xlink:href="#BitstreamVeraSans-Roman-36"/>
      </g>
     </g>
    </g>
    <g id="ytick_5">
     <g id="line2d_29">
      <g>
       <use style="stroke:#000000;stroke-width:0.5;" x="90.0" xlink:href="#m28a208e6c1" y="110.16"/>
      </g>
     </g>
     <g id="line2d_30">
      <g>
       <use style="stroke:#000000;stroke-width:0.5;" x="648.0" xlink:href="#ma1c1541f6e" y="110.16"/>
      </g>
     </g>
     <g id="text_15">
      <!-- 0.8 -->
      <g transform="translate(70.096875 112.919375)scale(0.1 -0.1)">
       <use xlink:href="#BitstreamVeraSans-Roman-30"/>
       <use x="63.623046875" xlink:href="#BitstreamVeraSans-Roman-2e"/>
       <use x="95.41015625" xlink:href="#BitstreamVeraSans-Roman-38"/>
      </g>
     </g>
    </g>
    <g id="ytick_6">
     <g id="line2d_31">
      <g>
       <use style="stroke:#000000;stroke-width:0.5;" x="90.0" xlink:href="#m28a208e6c1" y="43.2"/>
      </g>
     </g>
     <g id="line2d_32">
      <g>
       <use style="stroke:#000000;stroke-width:0.5;" x="648.0" xlink:href="#ma1c1541f6e" y="43.2"/>
      </g>
     </g>
     <g id="text_16">
      <!-- 1.0 -->
      <g transform="translate(70.096875 45.959375)scale(0.1 -0.1)">
       <use xlink:href="#BitstreamVeraSans-Roman-31"/>
       <use x="63.623046875" xlink:href="#BitstreamVeraSans-Roman-2e"/>
       <use x="95.41015625" xlink:href="#BitstreamVeraSans-Roman-30"/>
      </g>
     </g>
    </g>
    <g id="text_17">
     <!-- LER -->
     <defs>
      <path d="M 44.390625 34.1875 
Q 47.5625 33.109375 50.5625 29.59375 
Q 53.5625 26.078125 56.59375 19.921875 
L 66.609375 0 
L 56 0 
L 46.6875 18.703125 
Q 43.0625 26.03125 39.671875 28.421875 
Q 36.28125 30.8125 30.421875 30.8125 
L 19.671875 30.8125 
L 19.671875 0 
L 9.8125 0 
L 9.8125 72.90625 
L 32.078125 72.90625 
Q 44.578125 72.90625 50.734375 67.671875 
Q 56.890625 62.453125 56.890625 51.90625 
Q 56.890625 45.015625 53.6875 40.46875 
Q 50.484375 35.9375 44.390625 34.1875 
M 19.671875 64.796875 
L 19.671875 38.921875 
L 32.078125 38.921875 
Q 39.203125 38.921875 42.84375 42.21875 
Q 46.484375 45.515625 46.484375 51.90625 
Q 46.484375 58.296875 42.84375 61.546875 
Q 39.203125 64.796875 32.078125 64.796875 
z
" id="BitstreamVeraSans-Roman-52"/>
      <path d="M 9.8125 72.90625 
L 19.671875 72.90625 
L 19.671875 8.296875 
L 55.171875 8.296875 
L 55.171875 0 
L 9.8125 0 
z
" id="BitstreamVeraSans-Roman-4c"/>
     </defs>
     <g transform="translate(63.0171875 220.01953125)rotate(-90.0)scale(0.1 -0.1)">
      <use xlink:href="#BitstreamVeraSans-Roman-4c"/>
      <use x="55.712890625" xlink:href="#BitstreamVeraSans-Roman-45"/>
      <use x="118.896484375" xlink:href="#BitstreamVeraSans-Roman-52"/>
     </g>
    </g>
   </g>
   <g id="text_18">
    <!-- Label error rate -->
    <defs>
     <path id="BitstreamVeraSans-Roman-20"/>
     <path d="M 41.109375 46.296875 
Q 39.59375 47.171875 37.8125 47.578125 
Q 36.03125 48 33.890625 48 
Q 26.265625 48 22.1875 43.046875 
Q 18.109375 38.09375 18.109375 28.8125 
L 18.109375 0 
L 9.078125 0 
L 9.078125 54.6875 
L 18.109375 54.6875 
L 18.109375 46.1875 
Q 20.953125 51.171875 25.484375 53.578125 
Q 30.03125 56 36.53125 56 
Q 37.453125 56 38.578125 55.875 
Q 39.703125 55.765625 41.0625 55.515625 
z
" id="BitstreamVeraSans-Roman-72"/>
     <path d="M 9.421875 75.984375 
L 18.40625 75.984375 
L 18.40625 0 
L 9.421875 0 
z
" id="BitstreamVeraSans-Roman-6c"/>
     <path d="M 56.203125 29.59375 
L 56.203125 25.203125 
L 14.890625 25.203125 
Q 15.484375 15.921875 20.484375 11.0625 
Q 25.484375 6.203125 34.421875 6.203125 
Q 39.59375 6.203125 44.453125 7.46875 
Q 49.3125 8.734375 54.109375 11.28125 
L 54.109375 2.78125 
Q 49.265625 0.734375 44.1875 -0.34375 
Q 39.109375 -1.421875 33.890625 -1.421875 
Q 20.796875 -1.421875 13.15625 6.1875 
Q 5.515625 13.8125 5.515625 26.8125 
Q 5.515625 40.234375 12.765625 48.109375 
Q 20.015625 56 32.328125 56 
Q 43.359375 56 49.78125 48.890625 
Q 56.203125 41.796875 56.203125 29.59375 
M 47.21875 32.234375 
Q 47.125 39.59375 43.09375 43.984375 
Q 39.0625 48.390625 32.421875 48.390625 
Q 24.90625 48.390625 20.390625 44.140625 
Q 15.875 39.890625 15.1875 32.171875 
z
" id="BitstreamVeraSans-Roman-65"/>
     <path d="M 18.3125 70.21875 
L 18.3125 54.6875 
L 36.8125 54.6875 
L 36.8125 47.703125 
L 18.3125 47.703125 
L 18.3125 18.015625 
Q 18.3125 11.328125 20.140625 9.421875 
Q 21.96875 7.515625 27.59375 7.515625 
L 36.8125 7.515625 
L 36.8125 0 
L 27.59375 0 
Q 17.1875 0 13.234375 3.875 
Q 9.28125 7.765625 9.28125 18.015625 
L 9.28125 47.703125 
L 2.6875 47.703125 
L 2.6875 54.6875 
L 9.28125 54.6875 
L 9.28125 70.21875 
z
" id="BitstreamVeraSans-Roman-74"/>
     <path d="M 34.28125 27.484375 
Q 23.390625 27.484375 19.1875 25 
Q 14.984375 22.515625 14.984375 16.5 
Q 14.984375 11.71875 18.140625 8.90625 
Q 21.296875 6.109375 26.703125 6.109375 
Q 34.1875 6.109375 38.703125 11.40625 
Q 43.21875 16.703125 43.21875 25.484375 
L 43.21875 27.484375 
z
M 52.203125 31.203125 
L 52.203125 0 
L 43.21875 0 
L 43.21875 8.296875 
Q 40.140625 3.328125 35.546875 0.953125 
Q 30.953125 -1.421875 24.3125 -1.421875 
Q 15.921875 -1.421875 10.953125 3.296875 
Q 6 8.015625 6 15.921875 
Q 6 25.140625 12.171875 29.828125 
Q 18.359375 34.515625 30.609375 34.515625 
L 43.21875 34.515625 
L 43.21875 35.40625 
Q 43.21875 41.609375 39.140625 45 
Q 35.0625 48.390625 27.6875 48.390625 
Q 23 48.390625 18.546875 47.265625 
Q 14.109375 46.140625 10.015625 43.890625 
L 10.015625 52.203125 
Q 14.9375 54.109375 19.578125 55.046875 
Q 24.21875 56 28.609375 56 
Q 40.484375 56 46.34375 49.84375 
Q 52.203125 43.703125 52.203125 31.203125 
" id="BitstreamVeraSans-Roman-61"/>
     <path d="M 48.6875 27.296875 
Q 48.6875 37.203125 44.609375 42.84375 
Q 40.53125 48.484375 33.40625 48.484375 
Q 26.265625 48.484375 22.1875 42.84375 
Q 18.109375 37.203125 18.109375 27.296875 
Q 18.109375 17.390625 22.1875 11.75 
Q 26.265625 6.109375 33.40625 6.109375 
Q 40.53125 6.109375 44.609375 11.75 
Q 48.6875 17.390625 48.6875 27.296875 
M 18.109375 46.390625 
Q 20.953125 51.265625 25.265625 53.625 
Q 29.59375 56 35.59375 56 
Q 45.5625 56 51.78125 48.09375 
Q 58.015625 40.1875 58.015625 27.296875 
Q 58.015625 14.40625 51.78125 6.484375 
Q 45.5625 -1.421875 35.59375 -1.421875 
Q 29.59375 -1.421875 25.265625 0.953125 
Q 20.953125 3.328125 18.109375 8.203125 
L 18.109375 0 
L 9.078125 0 
L 9.078125 75.984375 
L 18.109375 75.984375 
z
" id="BitstreamVeraSans-Roman-62"/>
    </defs>
    <g transform="translate(322.0509375 38.2)scale(0.12 -0.12)">
     <use xlink:href="#BitstreamVeraSans-Roman-4c"/>
     <use x="55.712890625" xlink:href="#BitstreamVeraSans-Roman-61"/>
     <use x="116.9921875" xlink:href="#BitstreamVeraSans-Roman-62"/>
     <use x="180.46875" xlink:href="#BitstreamVeraSans-Roman-65"/>
     <use x="241.9921875" xlink:href="#BitstreamVeraSans-Roman-6c"/>
     <use x="269.775390625" xlink:href="#BitstreamVeraSans-Roman-20"/>
     <use x="301.5625" xlink:href="#BitstreamVeraSans-Roman-65"/>
     <use x="363.0859375" xlink:href="#BitstreamVeraSans-Roman-72"/>
     <use x="404.18359375" xlink:href="#BitstreamVeraSans-Roman-72"/>
     <use x="445.265625" xlink:href="#BitstreamVeraSans-Roman-6f"/>
     <use x="506.447265625" xlink:href="#BitstreamVeraSans-Roman-72"/>
     <use x="547.560546875" xlink:href="#BitstreamVeraSans-Roman-20"/>
     <use x="579.34765625" xlink:href="#BitstreamVeraSans-Roman-72"/>
     <use x="620.4609375" xlink:href="#BitstreamVeraSans-Roman-61"/>
     <use x="681.740234375" xlink:href="#BitstreamVeraSans-Roman-74"/>
     <use x="720.94921875" xlink:href="#BitstreamVeraSans-Roman-65"/>
    </g>
   </g>
   <g id="legend_1">
    <g id="patch_7">
     <path d="M 559.359375 88.36125 
L 642 88.36125 
L 642 49.2 
L 559.359375 49.2 
z
" style="fill:#ffffff;stroke:#000000;stroke-linejoin:miter;"/>
    </g>
    <g id="line2d_33">
     <path d="M 567.759375 58.918125 
L 584.559375 58.918125 
" style="fill:none;stroke:#0000ff;stroke-linecap:square;"/>
    </g>
    <g id="line2d_34"/>
    <g id="text_19">
     <!-- ler -->
     <g transform="translate(597.759375 63.118125)scale(0.12 -0.12)">
      <use xlink:href="#BitstreamVeraSans-Roman-6c"/>
      <use x="27.783203125" xlink:href="#BitstreamVeraSans-Roman-65"/>
      <use x="89.306640625" xlink:href="#BitstreamVeraSans-Roman-72"/>
     </g>
    </g>
    <g id="line2d_35">
     <path d="M 567.759375 76.531875 
L 584.559375 76.531875 
" style="fill:none;stroke:#008000;stroke-linecap:square;"/>
    </g>
    <g id="line2d_36"/>
    <g id="text_20">
     <!-- val_ler -->
     <defs>
      <path d="M 2.984375 54.6875 
L 12.5 54.6875 
L 29.59375 8.796875 
L 46.6875 54.6875 
L 56.203125 54.6875 
L 35.6875 0 
L 23.484375 0 
z
" id="BitstreamVeraSans-Roman-76"/>
      <path d="M 50.984375 -16.609375 
L 50.984375 -23.578125 
L -0.984375 -23.578125 
L -0.984375 -16.609375 
z
" id="BitstreamVeraSans-Roman-5f"/>
     </defs>
     <g transform="translate(597.759375 80.731875)scale(0.12 -0.12)">
      <use xlink:href="#BitstreamVeraSans-Roman-76"/>
      <use x="59.1796875" xlink:href="#BitstreamVeraSans-Roman-61"/>
      <use x="120.458984375" xlink:href="#BitstreamVeraSans-Roman-6c"/>
      <use x="148.2421875" xlink:href="#BitstreamVeraSans-Roman-5f"/>
      <use x="198.2421875" xlink:href="#BitstreamVeraSans-Roman-6c"/>
      <use x="226.025390625" xlink:href="#BitstreamVeraSans-Roman-65"/>
      <use x="287.548828125" xlink:href="#BitstreamVeraSans-Roman-72"/>
     </g>
    </g>
   </g>
  </g>
 </g>
 <defs>
  <clipPath id="p94020aae23">
   <rect height="334.8" width="558.0" x="90.0" y="43.2"/>
  </clipPath>
 </defs>
</svg>
