<?xml version="1.0" encoding="utf-8" standalone="no"?>
<!DOCTYPE svg PUBLIC "-//W3C//DTD SVG 1.1//EN"
  "http://www.w3.org/Graphics/SVG/1.1/DTD/svg11.dtd">
<!-- Created with matplotlib (http://matplotlib.org/) -->
<svg height="432pt" version="1.1" viewBox="0 0 720 432" width="720pt" xmlns="http://www.w3.org/2000/svg" xmlns:xlink="http://www.w3.org/1999/xlink">
 <defs>
  <style type="text/css">
*{stroke-linecap:butt;stroke-linejoin:round;stroke-miterlimit:100000;}
  </style>
 </defs>
 <g id="figure_1">
  <g id="patch_1">
   <path d="M 0 432 
L 720 432 
L 720 0 
L 0 0 
z
" style="fill:#ffffff;"/>
  </g>
  <g id="axes_1">
   <g id="patch_2">
    <path d="M 90 378 
L 648 378 
L 648 43.2 
L 90 43.2 
z
" style="fill:#ffffff;"/>
   </g>
   <g id="line2d_1">
    <path clip-path="url(#pf1fdcee37b)" d="M 90.46083 -1 
L 90.6975 139.72371 
L 92.79 207.569444 
L 93.4875 219.20285 
L 94.8825 234.878697 
L 95.58 240.572356 
L 96.2775 245.344857 
L 97.6725 252.574724 
L 98.37 255.546013 
L 99.0675 257.857833 
L 102.555 266.301005 
L 103.2525 267.180264 
L 103.95 267.805389 
L 106.0425 271.047055 
L 107.4375 272.72781 
L 108.135 273.69521 
L 108.8325 274.346812 
L 109.53 275.33954 
L 112.32 277.697436 
L 113.0175 278.55082 
L 113.715 278.903319 
L 115.11 280.301191 
L 115.8075 280.502569 
L 116.505 281.050559 
L 117.2025 281.386497 
L 121.3875 284.687697 
L 122.085 284.455882 
L 122.7825 285.297286 
L 123.48 285.808274 
L 124.1775 285.922519 
L 124.875 286.517559 
L 125.5725 286.828291 
L 126.9675 287.739225 
L 127.665 288.006657 
L 128.3625 288.613336 
L 129.06 288.999069 
L 129.7575 289.624856 
L 130.455 290.021034 
L 131.1525 290.113403 
L 131.85 290.881039 
L 133.9425 292.55985 
L 134.64 293.01647 
L 135.3375 293.112588 
L 136.035 293.833373 
L 136.7325 294.009815 
L 138.1275 294.622649 
L 138.825 295.129847 
L 139.5225 295.305199 
L 140.22 295.73893 
L 140.9175 295.994394 
L 141.615 296.387007 
L 142.3125 296.620017 
L 143.01 296.66756 
L 144.405 296.968656 
L 145.1025 297.461398 
L 145.8 297.50333 
L 146.4975 297.881758 
L 147.195 297.806724 
L 147.8925 298.059116 
L 149.2875 298.157363 
L 150.6825 297.723031 
L 151.38 298.512364 
L 154.17 298.925664 
L 154.8675 299.46686 
L 159.0525 300.724751 
L 159.75 300.323537 
L 160.4475 300.101382 
L 161.145 300.225401 
L 161.8425 300.474468 
L 162.54 300.987266 
L 163.2375 300.963559 
L 163.935 301.102865 
L 164.6325 301.039417 
L 166.0275 301.802748 
L 166.725 302.018773 
L 167.4225 302.003329 
L 169.515 302.488654 
L 170.2125 302.338719 
L 173.0025 302.617078 
L 173.7 303.095379 
L 174.3975 303.06653 
L 175.095 303.218398 
L 175.7925 303.52164 
L 177.885 303.507654 
L 178.5825 303.836654 
L 179.28 303.747762 
L 179.9775 303.935672 
L 180.675 303.960719 
L 182.7675 304.506026 
L 183.465 304.47844 
L 184.1625 304.335755 
L 184.86 304.568354 
L 185.5575 304.517448 
L 186.255 304.735157 
L 186.9525 304.671721 
L 187.65 305.042593 
L 189.045 304.626382 
L 189.7425 305.33169 
L 190.44 304.745395 
L 191.1375 305.142654 
L 192.5325 305.278004 
L 193.9275 305.850217 
L 194.625 305.693686 
L 195.3225 306.037079 
L 196.02 305.627225 
L 196.7175 305.386342 
L 197.415 305.907403 
L 198.1125 306.082683 
L 200.205 306.170948 
L 200.9025 306.528362 
L 202.995 306.330831 
L 204.39 306.981842 
L 205.785 306.975557 
L 208.575 307.477376 
L 209.2725 307.428215 
L 209.97 307.198594 
L 211.365 307.358779 
L 212.0625 307.552099 
L 213.4575 307.61273 
L 214.155 307.97562 
L 214.8525 307.879086 
L 216.2475 308.020012 
L 216.945 308.435567 
L 217.6425 308.042386 
L 218.34 308.076411 
L 219.0375 308.545606 
L 219.735 308.020132 
L 220.4325 308.64958 
L 221.13 308.438999 
L 223.92 308.722516 
L 224.6175 308.898961 
L 225.315 309.278552 
L 226.0125 308.895562 
L 226.71 309.190199 
L 227.4075 309.01821 
L 228.105 309.030051 
L 228.8025 309.420185 
L 230.1975 309.536089 
L 230.895 309.303598 
L 231.5925 309.536068 
L 232.29 309.530396 
L 232.9875 309.971214 
L 233.685 309.705399 
L 234.3825 309.919908 
L 235.08 309.721063 
L 236.475 309.932479 
L 237.1725 310.299013 
L 238.5675 310.160253 
L 239.265 310.509721 
L 239.9625 310.488812 
L 241.3575 310.105541 
L 242.055 310.602 
L 242.7525 310.596851 
L 243.45 309.80358 
L 244.1475 310.093578 
L 245.5425 310.358938 
L 246.24 310.576017 
L 248.3325 310.566912 
L 249.03 310.96458 
L 250.425 310.657893 
L 251.1225 311.072802 
L 251.82 311.242838 
L 252.5175 310.647529 
L 253.9125 311.272037 
L 255.3075 310.991452 
L 256.005 311.383331 
L 256.7025 311.319931 
L 257.4 311.049621 
L 258.0975 311.457688 
L 258.795 311.265726 
L 260.19 311.513081 
L 260.8875 311.825663 
L 261.585 311.554138 
L 262.2825 311.442475 
L 262.98 311.070983 
L 263.6775 311.195325 
L 264.375 310.766834 
L 265.0725 311.604518 
L 265.77 312.017668 
L 267.165 311.898693 
L 267.8625 312.050774 
L 269.2575 312.035849 
L 269.955 311.999392 
L 270.6525 311.845464 
L 271.35 312.14181 
L 272.0475 312.180473 
L 273.4425 311.792079 
L 274.14 312.102821 
L 274.8375 312.117596 
L 276.2325 312.499051 
L 279.0225 312.524432 
L 279.72 312.6355 
L 280.4175 312.885504 
L 281.115 312.896592 
L 281.8125 312.746887 
L 282.51 313.110722 
L 283.2075 313.039322 
L 283.905 313.083043 
L 284.6025 312.979572 
L 285.3 313.171046 
L 285.9975 312.709413 
L 286.695 313.150986 
L 287.3925 313.29222 
L 288.09 313.228339 
L 289.485 313.436181 
L 290.1825 312.94747 
L 290.88 313.556322 
L 291.5775 313.227141 
L 292.275 313.724712 
L 292.9725 313.525438 
L 293.67 313.449475 
L 294.3675 313.788283 
L 295.7625 313.167626 
L 296.46 313.71401 
L 297.1575 313.962971 
L 297.855 313.890338 
L 298.5525 314.090009 
L 299.25 313.999795 
L 299.9475 313.796336 
L 300.645 313.917101 
L 301.3425 313.863677 
L 302.04 314.157571 
L 302.7375 314.173505 
L 303.435 314.310687 
L 305.5275 313.505131 
L 306.225 313.750255 
L 306.9225 313.734224 
L 307.62 314.003344 
L 309.015 313.935892 
L 309.7125 314.14686 
L 310.41 314.672931 
L 311.1075 314.285409 
L 311.805 314.260963 
L 312.5025 313.86822 
L 313.2 314.542026 
L 314.595 314.169986 
L 315.2925 314.706038 
L 315.99 314.378274 
L 316.6875 314.548794 
L 317.385 314.278886 
L 318.0825 313.810407 
L 318.78 313.968647 
L 320.175 313.939727 
L 320.8725 314.233965 
L 322.2675 313.845016 
L 322.965 314.192388 
L 323.6625 314.043202 
L 324.36 314.359294 
L 326.4525 314.410723 
L 327.15 314.176666 
L 327.8475 314.239891 
L 328.545 314.663625 
L 329.2425 314.438805 
L 329.94 314.418586 
L 331.335 314.913847 
L 332.73 314.700902 
L 333.4275 314.657249 
L 334.125 314.998075 
L 334.8225 314.768609 
L 336.2175 315.300279 
L 336.915 314.982201 
L 337.6125 315.223048 
L 339.0075 315.079867 
L 339.705 315.32167 
L 340.4025 315.000099 
L 341.1 315.138298 
L 341.7975 315.409193 
L 342.495 315.123878 
L 343.1925 315.411938 
L 343.89 315.466023 
L 344.5875 315.217811 
L 345.285 315.214775 
L 345.9825 315.494793 
L 347.3775 315.490181 
L 348.075 315.752201 
L 349.47 315.593266 
L 350.1675 315.234755 
L 350.865 315.357667 
L 351.5625 315.291401 
L 352.26 315.083888 
L 352.9575 315.459243 
L 354.3525 315.851677 
L 355.7475 315.798662 
L 357.84 316.212477 
L 358.5375 315.865603 
L 359.235 315.789148 
L 359.9325 316.155816 
L 361.3275 315.693472 
L 363.42 316.403772 
L 364.1175 316.094094 
L 364.815 316.179121 
L 365.5125 316.095932 
L 366.21 316.216825 
L 366.9075 316.532241 
L 367.605 316.371239 
L 368.3025 315.826056 
L 369 315.882957 
L 369.6975 316.459929 
L 370.395 316.440644 
L 371.0925 316.561997 
L 371.79 316.217697 
L 372.4875 316.057084 
L 373.185 316.759513 
L 373.8825 316.091314 
L 374.58 316.396823 
L 375.2775 316.557793 
L 375.975 316.427135 
L 377.37 316.554201 
L 379.4625 316.60959 
L 380.16 316.632306 
L 380.8575 316.958778 
L 381.555 316.953912 
L 382.2525 316.542442 
L 382.95 316.543306 
L 383.6475 316.921458 
L 384.345 316.972791 
L 385.0425 316.795311 
L 385.74 316.787441 
L 386.4375 316.661696 
L 387.135 317.051709 
L 387.8325 316.993756 
L 388.53 316.726874 
L 389.2275 316.786323 
L 389.925 317.157122 
L 390.6225 316.869495 
L 391.32 316.838077 
L 392.0175 316.685158 
L 393.4125 317.114298 
L 394.8075 317.191914 
L 395.505 317.112211 
L 396.2025 317.361193 
L 396.9 317.265395 
L 397.5975 316.989732 
L 398.295 317.184048 
L 398.9925 316.980173 
L 399.69 317.052116 
L 400.3875 316.687164 
L 401.085 317.121646 
L 403.875 316.91878 
L 405.9675 317.596739 
L 406.665 317.187563 
L 407.3625 317.096033 
L 408.06 317.613321 
L 408.7575 317.085829 
L 410.1525 317.657535 
L 410.85 317.563497 
L 411.5475 317.594633 
L 412.245 317.489889 
L 412.9425 317.676391 
L 414.3375 317.718221 
L 415.035 317.513899 
L 415.7325 317.88906 
L 416.43 317.790909 
L 418.5225 317.939157 
L 419.22 317.700424 
L 419.9175 318.109947 
L 420.615 317.480898 
L 421.3125 317.699058 
L 422.01 317.570884 
L 423.405 317.786413 
L 424.1025 317.696856 
L 425.4975 317.899353 
L 426.8925 318.056791 
L 427.59 317.916809 
L 428.2875 317.392885 
L 428.985 318.379435 
L 429.6825 318.189113 
L 431.0775 318.473987 
L 431.775 318.321664 
L 432.4725 318.461918 
L 433.17 318.155636 
L 433.8675 318.249461 
L 434.565 318.192852 
L 435.2625 318.022525 
L 435.96 318.200122 
L 436.6575 318.030953 
L 438.0525 318.600208 
L 438.75 318.192781 
L 439.4475 316.81818 
L 440.145 317.442155 
L 440.8425 317.054222 
L 441.54 317.47478 
L 442.2375 317.035354 
L 442.935 317.131504 
L 443.6325 317.711885 
L 445.0275 317.65012 
L 445.725 317.917299 
L 446.4225 317.879754 
L 447.12 317.547726 
L 447.8175 318.252852 
L 448.515 318.173453 
L 449.2125 318.283299 
L 449.91 318.029858 
L 450.6075 318.071776 
L 451.305 318.347777 
L 452.0025 318.339109 
L 452.7 318.128326 
L 453.3975 318.348164 
L 454.095 318.322686 
L 454.7925 318.059867 
L 455.49 318.239056 
L 456.1875 318.196184 
L 457.5825 318.662728 
L 458.28 318.202034 
L 458.9775 318.379822 
L 461.7675 318.123655 
L 462.465 318.209165 
L 463.1625 318.664983 
L 463.86 318.792942 
L 464.5575 318.648574 
L 465.255 318.751819 
L 465.9525 318.463829 
L 468.045 318.831884 
L 468.7425 318.632629 
L 470.1375 318.855551 
L 471.5325 318.402 
L 472.23 318.351928 
L 472.9275 318.55549 
L 473.625 318.185485 
L 474.3225 318.126461 
L 475.02 318.816114 
L 475.7175 318.97032 
L 476.415 318.533368 
L 477.1125 318.311102 
L 477.81 318.531205 
L 478.5075 318.257235 
L 479.205 318.824397 
L 479.9025 318.900143 
L 481.2975 318.699145 
L 481.995 318.88579 
L 484.0875 318.907833 
L 484.785 318.603922 
L 486.18 318.991801 
L 486.8775 318.798018 
L 488.2725 319.068891 
L 488.97 318.969809 
L 491.0625 319.073473 
L 491.76 319.199029 
L 492.4575 319.144384 
L 493.155 318.285928 
L 493.8525 318.920173 
L 494.55 319.398749 
L 495.2475 319.046367 
L 495.945 319.48853 
L 496.6425 319.368832 
L 497.34 319.012792 
L 498.0375 319.24984 
L 498.735 319.008651 
L 500.13 319.036803 
L 500.8275 319.147292 
L 501.525 319.424014 
L 502.92 319.351624 
L 503.6175 319.173577 
L 504.315 319.394057 
L 505.0125 319.417455 
L 505.71 319.139015 
L 506.4075 319.330209 
L 508.5 319.390587 
L 509.895 318.776958 
L 510.5925 319.725923 
L 511.29 319.314374 
L 511.9875 319.443362 
L 512.685 319.773211 
L 514.08 319.436977 
L 514.7775 319.49271 
L 515.475 319.788326 
L 516.1725 318.778362 
L 516.87 318.945431 
L 517.5675 319.530738 
L 518.265 319.793456 
L 519.66 319.574952 
L 520.3575 319.810138 
L 521.055 319.679712 
L 521.7525 319.790988 
L 523.1475 319.645321 
L 524.5425 319.440761 
L 525.24 319.861859 
L 525.9375 320.084592 
L 526.635 319.136896 
L 527.3325 320.13769 
L 528.03 319.967539 
L 528.7275 320.00994 
L 529.425 319.853096 
L 530.1225 320.375229 
L 530.82 319.670062 
L 531.5175 320.353646 
L 532.215 320.251495 
L 532.9125 319.896817 
L 533.61 320.214188 
L 534.3075 320.198078 
L 535.005 319.792678 
L 535.7025 320.008996 
L 536.4 319.933185 
L 537.0975 320.458783 
L 537.795 320.23194 
L 538.4925 320.244489 
L 539.19 320.431904 
L 539.8875 319.805212 
L 541.98 320.233006 
L 542.6775 320.01718 
L 543.375 320.141185 
L 544.0725 319.874087 
L 544.77 319.997427 
L 545.4675 320.352864 
L 546.165 319.752699 
L 546.8625 319.623915 
L 547.56 320.039421 
L 548.955 320.359807 
L 549.6525 320.632704 
L 550.35 320.292472 
L 551.0475 320.562291 
L 551.745 319.639631 
L 552.4425 320.210023 
L 553.14 320.581145 
L 553.8375 320.074558 
L 554.535 320.084 
L 555.2325 319.707091 
L 556.6275 320.718873 
L 557.325 320.295787 
L 558.0225 320.554567 
L 559.4175 320.085034 
L 560.115 320.380726 
L 560.8125 320.516566 
L 562.2075 320.009059 
L 563.6025 320.715894 
L 564.3 320.74837 
L 565.695 320.29403 
L 566.3925 320.266638 
L 567.09 320.650526 
L 567.7875 320.244564 
L 569.88 320.898379 
L 570.5775 320.797761 
L 571.275 320.548629 
L 571.9725 320.936754 
L 572.67 320.924832 
L 574.065 320.506026 
L 575.46 321.054157 
L 576.855 320.808887 
L 577.5525 320.725853 
L 578.25 321.19434 
L 578.9475 320.851485 
L 579.645 320.714149 
L 580.3425 320.817814 
L 581.04 320.77766 
L 581.7375 320.904777 
L 582.435 320.584725 
L 584.5275 320.99984 
L 585.225 320.326541 
L 585.9225 321.224577 
L 586.62 320.879792 
L 588.015 320.879935 
L 588.7125 319.655341 
L 590.1075 320.482541 
L 590.805 320.581407 
L 591.5025 320.799028 
L 593.595 320.289525 
L 594.2925 319.957083 
L 594.99 320.708807 
L 595.6875 320.573689 
L 596.385 320.924221 
L 597.0825 320.706444 
L 598.4775 321.280462 
L 599.175 321.358204 
L 599.8725 321.140776 
L 600.57 320.643508 
L 601.2675 320.63443 
L 601.965 320.755579 
L 602.6625 321.180333 
L 603.36 320.582169 
L 604.0575 319.105257 
L 604.755 321.054708 
L 605.4525 320.787037 
L 606.15 321.361726 
L 606.8475 320.957042 
L 607.545 321.292536 
L 608.2425 320.74295 
L 608.94 320.717326 
L 609.6375 321.324899 
L 611.73 320.837046 
L 612.4275 320.781103 
L 612.4275 320.781103 
" style="fill:none;stroke:#0000ff;stroke-linecap:square;"/>
   </g>
   <g id="line2d_2">
    <path clip-path="url(#pf1fdcee37b)" d="M 90 134.559848 
L 90.6975 152.610419 
L 91.395 181.426011 
L 92.0925 204.18435 
L 92.79 217.861054 
L 93.4875 228.122989 
L 94.8825 242.16758 
L 95.58 247.335738 
L 96.975 255.122433 
L 98.37 261.074359 
L 99.0675 261.670231 
L 99.765 265.274111 
L 101.16 269.243526 
L 101.8575 270.199046 
L 102.555 270.88803 
L 103.2525 270.945298 
L 103.95 272.989017 
L 104.6475 274.204177 
L 105.345 274.520204 
L 106.0425 275.049734 
L 106.74 277.056147 
L 107.4375 276.654576 
L 108.135 278.754694 
L 108.8325 278.627559 
L 109.53 280.037047 
L 110.2275 279.831194 
L 110.925 281.56879 
L 111.6225 282.6052 
L 112.32 281.851298 
L 113.0175 281.556855 
L 113.715 283.447532 
L 114.4125 284.222334 
L 115.11 283.79013 
L 115.8075 284.775562 
L 116.505 284.775185 
L 117.2025 285.805879 
L 117.9 286.175604 
L 118.5975 286.872647 
L 119.9925 287.229313 
L 120.69 286.994066 
L 122.085 288.040693 
L 122.7825 288.940536 
L 123.48 289.565655 
L 124.1775 289.346788 
L 124.875 290.128959 
L 125.5725 289.929199 
L 126.27 290.395005 
L 126.9675 291.516115 
L 127.665 291.259227 
L 128.3625 292.926554 
L 129.06 292.468673 
L 129.7575 292.925373 
L 130.455 292.844248 
L 131.1525 293.665979 
L 131.85 294.956997 
L 132.5475 294.760806 
L 133.245 295.669359 
L 133.9425 295.948418 
L 134.64 296.477272 
L 135.3375 296.376638 
L 136.035 296.915459 
L 136.7325 297.263536 
L 137.43 298.008434 
L 138.1275 297.554288 
L 138.825 297.805257 
L 139.5225 297.806112 
L 140.22 299.069224 
L 140.9175 297.900903 
L 141.615 299.889794 
L 142.3125 299.149998 
L 143.01 299.399849 
L 144.405 300.509676 
L 145.1025 299.786427 
L 145.8 300.335721 
L 146.4975 300.138336 
L 147.195 300.827 
L 147.8925 300.502077 
L 148.59 300.880085 
L 149.2875 300.247162 
L 149.985 300.126164 
L 150.6825 300.172844 
L 151.38 300.707074 
L 152.0775 298.990794 
L 152.775 301.398088 
L 153.4725 299.897533 
L 154.17 300.512403 
L 154.8675 301.627141 
L 155.565 302.032933 
L 156.2625 301.833211 
L 156.96 302.117634 
L 157.6575 302.528938 
L 158.355 302.458815 
L 159.0525 301.648188 
L 159.75 302.293819 
L 160.4475 301.916597 
L 161.145 301.792054 
L 161.8425 302.468802 
L 162.54 302.639297 
L 163.2375 301.087994 
L 163.935 303.266543 
L 165.33 302.67811 
L 166.0275 303.144567 
L 166.725 304.25373 
L 167.4225 302.861881 
L 168.12 303.193847 
L 168.8175 303.366589 
L 169.515 304.274848 
L 170.2125 304.002736 
L 170.91 304.434589 
L 171.6075 304.09761 
L 172.305 303.526323 
L 173.0025 303.661811 
L 173.7 304.29852 
L 174.3975 304.019116 
L 175.095 304.031434 
L 175.7925 304.975977 
L 176.49 303.870678 
L 177.1875 303.68715 
L 177.885 304.098351 
L 178.5825 305.464421 
L 179.9775 305.741354 
L 180.675 305.232865 
L 181.3725 305.90552 
L 182.07 305.613638 
L 182.7675 305.605171 
L 183.465 304.696503 
L 184.1625 305.040212 
L 184.86 305.944863 
L 185.5575 304.617306 
L 186.255 305.478202 
L 186.9525 304.630723 
L 187.65 304.371287 
L 188.3475 305.52826 
L 189.045 305.383353 
L 189.7425 305.702005 
L 190.44 306.144075 
L 191.1375 305.528669 
L 191.835 306.2769 
L 192.5325 306.141833 
L 193.23 306.232474 
L 193.9275 306.772259 
L 194.625 306.391218 
L 195.3225 305.813444 
L 196.02 304.999005 
L 196.7175 304.514367 
L 197.415 307.380743 
L 198.1125 306.553264 
L 198.81 307.762927 
L 199.5075 306.608578 
L 200.205 306.938954 
L 200.9025 306.326913 
L 201.6 306.408013 
L 202.2975 305.963606 
L 202.995 305.158292 
L 203.6925 307.607663 
L 204.39 307.245588 
L 205.0875 307.066268 
L 205.785 307.907457 
L 206.4825 306.789865 
L 207.8775 307.825578 
L 209.2725 307.637887 
L 209.97 306.523283 
L 210.6675 306.879355 
L 211.365 307.092577 
L 212.0625 308.003646 
L 212.76 307.432053 
L 213.4575 307.463037 
L 214.155 308.038015 
L 214.8525 307.860349 
L 215.55 307.443739 
L 216.2475 308.668862 
L 216.945 308.452702 
L 217.6425 307.644688 
L 218.34 307.81379 
L 219.0375 308.564607 
L 219.735 307.43773 
L 220.4325 308.917436 
L 221.13 308.191664 
L 221.8275 308.387657 
L 222.525 309.139783 
L 223.2225 308.150315 
L 223.92 307.801625 
L 225.315 308.630189 
L 226.0125 309.184771 
L 226.71 308.861585 
L 227.4075 309.243373 
L 228.105 309.025132 
L 228.8025 308.303192 
L 229.5 308.613752 
L 230.1975 308.737541 
L 231.5925 309.756007 
L 232.29 309.361964 
L 232.9875 308.813124 
L 233.685 308.984914 
L 234.3825 308.894926 
L 235.08 309.15281 
L 235.7775 308.724642 
L 236.475 308.715421 
L 237.1725 309.550416 
L 238.5675 309.888589 
L 239.265 309.974905 
L 239.9625 310.268704 
L 241.3575 309.340418 
L 242.055 310.098228 
L 242.7525 310.366726 
L 243.45 309.316759 
L 244.1475 309.519483 
L 244.845 309.464367 
L 245.5425 309.931124 
L 246.24 309.446199 
L 246.9375 309.279466 
L 247.635 309.719671 
L 248.3325 309.046703 
L 249.03 309.492222 
L 249.7275 311.558827 
L 251.1225 309.129432 
L 251.82 309.341217 
L 252.5175 309.411052 
L 253.215 310.186269 
L 253.9125 310.282267 
L 254.61 309.217377 
L 256.005 309.686714 
L 256.7025 310.174749 
L 258.0975 310.624853 
L 258.795 310.150055 
L 260.19 310.373431 
L 260.8875 311.064234 
L 261.585 310.65728 
L 262.2825 310.583568 
L 262.98 310.03483 
L 263.6775 311.008748 
L 264.375 308.897237 
L 265.0725 309.836972 
L 265.77 309.651522 
L 266.4675 310.289432 
L 267.165 311.429298 
L 267.8625 311.130385 
L 268.56 311.306199 
L 269.2575 307.454467 
L 269.955 308.668677 
L 270.6525 310.235261 
L 271.35 310.742862 
L 272.0475 310.241781 
L 272.745 310.794217 
L 275.535 311.362132 
L 276.2325 310.331763 
L 276.93 310.521811 
L 277.6275 311.001181 
L 279.0225 310.661526 
L 279.72 310.324062 
L 280.4175 310.831031 
L 281.115 310.773125 
L 281.8125 311.236925 
L 282.51 311.100135 
L 283.2075 311.528616 
L 283.905 310.867998 
L 284.6025 311.807574 
L 285.9975 311.079234 
L 286.695 311.544434 
L 287.3925 311.348051 
L 288.09 310.855687 
L 288.7875 312.121678 
L 289.485 311.916764 
L 290.1825 311.590456 
L 290.88 309.74987 
L 291.5775 311.464982 
L 292.275 311.123392 
L 292.9725 311.670055 
L 293.67 311.78878 
L 294.3675 310.534851 
L 295.065 311.336071 
L 295.7625 309.688943 
L 296.46 310.945975 
L 297.1575 311.839771 
L 297.855 312.084609 
L 298.5525 311.158437 
L 299.25 311.619397 
L 299.9475 312.258596 
L 300.645 310.505527 
L 301.3425 312.324728 
L 302.04 312.186271 
L 302.7375 312.611214 
L 303.435 311.795747 
L 304.1325 311.636415 
L 304.83 310.60627 
L 305.5275 311.904829 
L 306.225 312.238615 
L 306.9225 311.563099 
L 307.62 311.56907 
L 308.3175 311.44767 
L 309.015 311.186082 
L 309.7125 311.911745 
L 310.41 311.506834 
L 311.805 311.612602 
L 312.5025 311.27556 
L 313.2 311.914025 
L 313.8975 311.996082 
L 314.595 311.744999 
L 315.99 312.314127 
L 316.6875 312.234848 
L 317.385 311.465569 
L 318.78 311.589403 
L 319.4775 311.836603 
L 320.8725 311.853462 
L 321.57 311.755874 
L 322.2675 312.067265 
L 322.965 312.508626 
L 323.6625 311.767266 
L 324.36 312.761708 
L 325.0575 308.964761 
L 325.755 312.291292 
L 326.4525 312.125599 
L 327.15 312.593468 
L 327.8475 311.765504 
L 328.545 312.138435 
L 329.2425 311.659781 
L 329.94 312.125938 
L 330.6375 312.404601 
L 331.335 312.521481 
L 332.0325 312.388043 
L 332.73 310.552393 
L 333.4275 311.158808 
L 334.8225 311.772247 
L 335.52 312.127822 
L 336.2175 311.897313 
L 336.915 312.312965 
L 337.6125 312.558084 
L 338.31 312.630372 
L 339.0075 312.40957 
L 339.705 312.92067 
L 340.4025 311.072683 
L 341.1 312.308106 
L 341.7975 312.621074 
L 342.495 311.788569 
L 343.1925 312.848491 
L 343.89 312.186335 
L 344.5875 310.813828 
L 345.285 312.180121 
L 345.9825 312.197459 
L 346.68 313.162954 
L 347.3775 312.975211 
L 348.075 312.498696 
L 348.7725 313.038539 
L 349.47 310.512794 
L 350.1675 312.635276 
L 350.865 312.920242 
L 351.5625 311.789636 
L 352.26 312.884169 
L 352.9575 313.285989 
L 353.655 312.066812 
L 354.3525 310.053745 
L 355.05 313.059619 
L 355.7475 311.621063 
L 357.1425 313.603983 
L 357.84 313.156268 
L 358.5375 311.813781 
L 359.235 312.699619 
L 359.9325 311.926867 
L 360.63 311.679564 
L 361.3275 312.054519 
L 362.025 313.080417 
L 363.42 312.009467 
L 364.1175 312.291943 
L 365.5125 312.439155 
L 366.21 312.798746 
L 366.9075 312.260289 
L 367.605 313.033942 
L 368.3025 312.896915 
L 369 313.483227 
L 369.6975 312.951296 
L 370.395 313.606991 
L 371.79 312.693974 
L 372.4875 313.037805 
L 373.185 313.940987 
L 373.8825 312.386383 
L 374.58 312.631189 
L 375.2775 312.548659 
L 375.975 312.910363 
L 376.6725 311.647667 
L 377.37 313.493707 
L 378.0675 312.588404 
L 378.765 312.311554 
L 379.4625 313.138177 
L 380.16 313.051675 
L 380.8575 312.394525 
L 381.555 313.073086 
L 382.2525 312.251464 
L 383.6475 312.880599 
L 384.345 312.515293 
L 385.0425 313.32152 
L 385.74 312.971878 
L 386.4375 313.484288 
L 387.135 312.941705 
L 387.8325 313.926147 
L 388.53 312.453076 
L 389.2275 313.187233 
L 389.925 313.319419 
L 390.6225 313.145233 
L 391.32 313.715792 
L 392.0175 313.656596 
L 392.715 312.781 
L 393.4125 313.80292 
L 394.11 313.158082 
L 394.8075 313.243543 
L 395.505 312.457393 
L 396.2025 313.15137 
L 396.9 313.383405 
L 397.5975 312.715628 
L 398.295 313.250854 
L 398.9925 313.457493 
L 399.69 313.204909 
L 400.3875 312.172062 
L 401.085 313.250937 
L 401.7825 312.885363 
L 402.48 313.078968 
L 403.1775 313.61088 
L 404.5725 313.70023 
L 405.27 313.175464 
L 405.9675 313.649067 
L 406.665 312.213864 
L 407.3625 313.472321 
L 408.7575 312.967267 
L 409.455 313.64892 
L 410.1525 313.55388 
L 410.85 310.621072 
L 411.5475 313.954647 
L 412.245 313.099032 
L 412.9425 313.618396 
L 413.64 313.314368 
L 415.035 313.430372 
L 415.7325 314.395886 
L 416.43 313.300095 
L 417.1275 313.456848 
L 417.825 314.360713 
L 418.5225 314.001972 
L 419.22 313.778692 
L 419.9175 313.317765 
L 420.615 313.637496 
L 421.3125 313.423731 
L 422.01 312.977453 
L 423.405 314.019629 
L 424.1025 313.205547 
L 424.8 312.013164 
L 425.4975 314.546636 
L 426.195 313.208319 
L 426.8925 314.353721 
L 427.59 314.655572 
L 428.2875 313.751987 
L 428.985 313.956767 
L 429.6825 312.724588 
L 430.38 314.233974 
L 431.0775 313.920891 
L 431.775 314.732195 
L 432.4725 314.397291 
L 433.17 312.810534 
L 433.8675 313.357395 
L 435.2625 312.609618 
L 435.96 313.831726 
L 436.6575 312.711874 
L 437.355 314.097005 
L 438.0525 314.421257 
L 438.75 312.305085 
L 439.4475 313.076503 
L 440.8425 313.336494 
L 441.54 311.899906 
L 442.2375 311.594339 
L 442.935 313.023954 
L 443.6325 313.656781 
L 444.33 312.319843 
L 446.4225 313.200713 
L 448.515 312.683495 
L 449.2125 313.226007 
L 450.6075 313.687995 
L 451.305 313.694412 
L 452.0025 313.203287 
L 452.7 314.267193 
L 453.3975 312.282415 
L 454.095 313.159997 
L 454.7925 312.700309 
L 455.49 313.763935 
L 456.1875 313.176792 
L 456.885 313.665351 
L 457.5825 313.994756 
L 458.28 314.184842 
L 459.675 314.332731 
L 461.07 313.566217 
L 461.7675 312.355028 
L 462.465 313.045934 
L 463.1625 313.981882 
L 463.86 313.938197 
L 464.5575 313.623198 
L 465.255 312.474162 
L 465.9525 314.389558 
L 466.65 313.88423 
L 467.3475 314.366806 
L 468.045 313.818022 
L 468.7425 314.325432 
L 469.44 314.06371 
L 470.1375 314.027994 
L 470.835 313.644335 
L 471.5325 312.311707 
L 472.23 314.451226 
L 472.9275 313.318103 
L 473.625 310.897316 
L 474.3225 314.101526 
L 475.02 313.63595 
L 475.7175 313.725217 
L 476.415 314.502019 
L 477.1125 313.680619 
L 477.81 314.129349 
L 478.5075 313.955585 
L 479.205 314.721582 
L 479.9025 314.752425 
L 480.6 313.279054 
L 481.2975 313.021879 
L 481.995 314.238259 
L 482.6925 314.966145 
L 483.39 314.79505 
L 484.0875 314.355388 
L 484.785 314.076877 
L 485.4825 314.053716 
L 486.18 314.246733 
L 487.575 313.783954 
L 488.2725 314.151521 
L 488.97 313.929704 
L 489.6675 313.856178 
L 490.365 312.857508 
L 491.0625 313.825468 
L 491.76 313.883464 
L 492.4575 314.239422 
L 493.155 314.111667 
L 493.8525 312.313604 
L 494.55 314.259051 
L 495.2475 313.370307 
L 495.945 314.432567 
L 496.6425 314.045734 
L 498.735 313.708634 
L 499.4325 314.253981 
L 500.13 313.841509 
L 500.8275 314.44855 
L 501.525 313.643818 
L 502.2225 314.496022 
L 502.92 312.26866 
L 503.6175 312.521883 
L 504.315 314.196113 
L 505.0125 312.260353 
L 505.71 313.034746 
L 506.4075 312.943372 
L 507.8025 314.179229 
L 508.5 313.959436 
L 509.1975 314.281306 
L 510.5925 314.425606 
L 511.29 314.195615 
L 511.9875 312.882687 
L 512.685 314.246369 
L 513.3825 314.343951 
L 514.08 313.608862 
L 514.7775 313.817282 
L 515.475 313.541434 
L 516.1725 313.547762 
L 516.87 313.35032 
L 517.5675 314.375497 
L 518.265 313.594775 
L 518.9625 313.577035 
L 519.66 314.395835 
L 520.3575 313.702912 
L 521.055 313.860303 
L 521.7525 314.183693 
L 522.45 314.651261 
L 523.1475 313.489256 
L 524.5425 314.470236 
L 525.24 314.401896 
L 526.635 313.457314 
L 527.3325 314.655425 
L 528.7275 313.757798 
L 529.425 314.59444 
L 530.1225 314.470939 
L 530.82 315.201551 
L 531.5175 314.531955 
L 532.215 314.220066 
L 533.61 314.475881 
L 534.3075 313.358992 
L 535.005 313.39746 
L 535.7025 314.388383 
L 536.4 314.969153 
L 537.0975 313.836975 
L 537.795 314.50684 
L 539.19 313.967342 
L 539.8875 313.789918 
L 540.585 314.714212 
L 541.2825 313.812013 
L 542.6775 314.948016 
L 544.0725 314.504445 
L 544.77 313.988855 
L 546.165 313.419261 
L 546.8625 314.87334 
L 547.56 315.107846 
L 548.2575 314.202275 
L 548.955 314.667934 
L 549.6525 313.538452 
L 550.35 314.108647 
L 551.745 313.788431 
L 552.4425 313.804382 
L 553.14 313.7059 
L 553.8375 313.258894 
L 554.535 313.962029 
L 555.2325 313.374963 
L 555.93 313.520412 
L 556.6275 313.534946 
L 557.325 314.225379 
L 558.0225 313.883886 
L 559.4175 314.631305 
L 560.115 313.463431 
L 560.8125 313.478042 
L 561.51 315.18376 
L 562.2075 314.703382 
L 562.905 315.327377 
L 563.6025 314.482082 
L 564.9975 314.498423 
L 565.695 314.218476 
L 566.3925 313.67779 
L 567.09 313.756699 
L 567.7875 314.212959 
L 568.485 314.01936 
L 569.1825 315.137457 
L 569.88 314.042822 
L 571.275 313.304623 
L 571.9725 312.288329 
L 572.67 314.4112 
L 573.3675 314.67441 
L 574.7625 314.762981 
L 575.46 314.290425 
L 576.1575 314.889503 
L 576.855 315.251916 
L 577.5525 314.022113 
L 578.25 314.621657 
L 578.9475 314.807311 
L 579.645 315.403151 
L 580.3425 314.440536 
L 581.04 313.97102 
L 581.7375 313.746067 
L 582.435 314.790267 
L 583.1325 313.457033 
L 583.83 314.058333 
L 584.5275 313.805398 
L 585.225 314.153047 
L 585.9225 315.494436 
L 586.62 314.551451 
L 587.3175 315.43137 
L 588.015 314.256408 
L 588.7125 314.57799 
L 589.41 313.121491 
L 590.1075 314.547977 
L 590.805 314.028939 
L 591.5025 314.118494 
L 592.2 314.639569 
L 592.8975 313.616167 
L 593.595 311.820275 
L 594.2925 314.370247 
L 594.99 313.740441 
L 595.6875 314.262698 
L 596.385 314.486986 
L 597.0825 314.255182 
L 597.78 314.869579 
L 598.4775 313.311264 
L 599.175 314.292417 
L 599.8725 314.717195 
L 600.57 312.990633 
L 601.2675 313.340339 
L 601.965 314.02991 
L 602.6625 314.298165 
L 603.36 312.88097 
L 604.0575 313.263684 
L 604.755 313.467576 
L 605.4525 314.247729 
L 606.8475 314.117191 
L 607.545 314.082522 
L 608.2425 314.526872 
L 608.94 313.254954 
L 609.6375 314.640891 
L 610.335 314.770612 
L 611.0325 314.123423 
L 611.73 313.712095 
L 612.4275 315.166564 
L 612.4275 315.166564 
" style="fill:none;stroke:#008000;stroke-linecap:square;"/>
   </g>
   <g id="patch_3">
    <path d="M 90 43.2 
L 648 43.2 
" style="fill:none;stroke:#000000;stroke-linecap:square;stroke-linejoin:miter;"/>
   </g>
   <g id="patch_4">
    <path d="M 648 378 
L 648 43.2 
" style="fill:none;stroke:#000000;stroke-linecap:square;stroke-linejoin:miter;"/>
   </g>
   <g id="patch_5">
    <path d="M 90 378 
L 648 378 
" style="fill:none;stroke:#000000;stroke-linecap:square;stroke-linejoin:miter;"/>
   </g>
   <g id="patch_6">
    <path d="M 90 378 
L 90 43.2 
" style="fill:none;stroke:#000000;stroke-linecap:square;stroke-linejoin:miter;"/>
   </g>
   <g id="matplotlib.axis_1">
    <g id="xtick_1">
     <g id="line2d_3">
      <defs>
       <path d="M 0 0 
L 0 -4 
" id="mdbd2961011" style="stroke:#000000;stroke-width:0.5;"/>
      </defs>
      <g>
       <use style="stroke:#000000;stroke-width:0.5;" x="90.0" xlink:href="#mdbd2961011" y="378.0"/>
      </g>
     </g>
     <g id="line2d_4">
      <defs>
       <path d="M 0 0 
L 0 4 
" id="m7a35fba668" style="stroke:#000000;stroke-width:0.5;"/>
      </defs>
      <g>
       <use style="stroke:#000000;stroke-width:0.5;" x="90.0" xlink:href="#m7a35fba668" y="43.2"/>
      </g>
     </g>
     <g id="text_1">
      <!-- 0 -->
      <defs>
       <path d="M 31.78125 66.40625 
Q 24.171875 66.40625 20.328125 58.90625 
Q 16.5 51.421875 16.5 36.375 
Q 16.5 21.390625 20.328125 13.890625 
Q 24.171875 6.390625 31.78125 6.390625 
Q 39.453125 6.390625 43.28125 13.890625 
Q 47.125 21.390625 47.125 36.375 
Q 47.125 51.421875 43.28125 58.90625 
Q 39.453125 66.40625 31.78125 66.40625 
M 31.78125 74.21875 
Q 44.046875 74.21875 50.515625 64.515625 
Q 56.984375 54.828125 56.984375 36.375 
Q 56.984375 17.96875 50.515625 8.265625 
Q 44.046875 -1.421875 31.78125 -1.421875 
Q 19.53125 -1.421875 13.0625 8.265625 
Q 6.59375 17.96875 6.59375 36.375 
Q 6.59375 54.828125 13.0625 64.515625 
Q 19.53125 74.21875 31.78125 74.21875 
" id="BitstreamVeraSans-Roman-30"/>
      </defs>
      <g transform="translate(86.81875 389.5984375)scale(0.1 -0.1)">
       <use xlink:href="#BitstreamVeraSans-Roman-30"/>
      </g>
     </g>
    </g>
    <g id="xtick_2">
     <g id="line2d_5">
      <g>
       <use style="stroke:#000000;stroke-width:0.5;" x="159.75" xlink:href="#mdbd2961011" y="378.0"/>
      </g>
     </g>
     <g id="line2d_6">
      <g>
       <use style="stroke:#000000;stroke-width:0.5;" x="159.75" xlink:href="#m7a35fba668" y="43.2"/>
      </g>
     </g>
     <g id="text_2">
      <!-- 100 -->
      <defs>
       <path d="M 12.40625 8.296875 
L 28.515625 8.296875 
L 28.515625 63.921875 
L 10.984375 60.40625 
L 10.984375 69.390625 
L 28.421875 72.90625 
L 38.28125 72.90625 
L 38.28125 8.296875 
L 54.390625 8.296875 
L 54.390625 0 
L 12.40625 0 
z
" id="BitstreamVeraSans-Roman-31"/>
      </defs>
      <g transform="translate(150.20625 389.5984375)scale(0.1 -0.1)">
       <use xlink:href="#BitstreamVeraSans-Roman-31"/>
       <use x="63.623046875" xlink:href="#BitstreamVeraSans-Roman-30"/>
       <use x="127.24609375" xlink:href="#BitstreamVeraSans-Roman-30"/>
      </g>
     </g>
    </g>
    <g id="xtick_3">
     <g id="line2d_7">
      <g>
       <use style="stroke:#000000;stroke-width:0.5;" x="229.5" xlink:href="#mdbd2961011" y="378.0"/>
      </g>
     </g>
     <g id="line2d_8">
      <g>
       <use style="stroke:#000000;stroke-width:0.5;" x="229.5" xlink:href="#m7a35fba668" y="43.2"/>
      </g>
     </g>
     <g id="text_3">
      <!-- 200 -->
      <defs>
       <path d="M 19.1875 8.296875 
L 53.609375 8.296875 
L 53.609375 0 
L 7.328125 0 
L 7.328125 8.296875 
Q 12.9375 14.109375 22.625 23.890625 
Q 32.328125 33.6875 34.8125 36.53125 
Q 39.546875 41.84375 41.421875 45.53125 
Q 43.3125 49.21875 43.3125 52.78125 
Q 43.3125 58.59375 39.234375 62.25 
Q 35.15625 65.921875 28.609375 65.921875 
Q 23.96875 65.921875 18.8125 64.3125 
Q 13.671875 62.703125 7.8125 59.421875 
L 7.8125 69.390625 
Q 13.765625 71.78125 18.9375 73 
Q 24.125 74.21875 28.421875 74.21875 
Q 39.75 74.21875 46.484375 68.546875 
Q 53.21875 62.890625 53.21875 53.421875 
Q 53.21875 48.921875 51.53125 44.890625 
Q 49.859375 40.875 45.40625 35.40625 
Q 44.1875 33.984375 37.640625 27.21875 
Q 31.109375 20.453125 19.1875 8.296875 
" id="BitstreamVeraSans-Roman-32"/>
      </defs>
      <g transform="translate(219.95625 389.5984375)scale(0.1 -0.1)">
       <use xlink:href="#BitstreamVeraSans-Roman-32"/>
       <use x="63.623046875" xlink:href="#BitstreamVeraSans-Roman-30"/>
       <use x="127.24609375" xlink:href="#BitstreamVeraSans-Roman-30"/>
      </g>
     </g>
    </g>
    <g id="xtick_4">
     <g id="line2d_9">
      <g>
       <use style="stroke:#000000;stroke-width:0.5;" x="299.25" xlink:href="#mdbd2961011" y="378.0"/>
      </g>
     </g>
     <g id="line2d_10">
      <g>
       <use style="stroke:#000000;stroke-width:0.5;" x="299.25" xlink:href="#m7a35fba668" y="43.2"/>
      </g>
     </g>
     <g id="text_4">
      <!-- 300 -->
      <defs>
       <path d="M 40.578125 39.3125 
Q 47.65625 37.796875 51.625 33 
Q 55.609375 28.21875 55.609375 21.1875 
Q 55.609375 10.40625 48.1875 4.484375 
Q 40.765625 -1.421875 27.09375 -1.421875 
Q 22.515625 -1.421875 17.65625 -0.515625 
Q 12.796875 0.390625 7.625 2.203125 
L 7.625 11.71875 
Q 11.71875 9.328125 16.59375 8.109375 
Q 21.484375 6.890625 26.8125 6.890625 
Q 36.078125 6.890625 40.9375 10.546875 
Q 45.796875 14.203125 45.796875 21.1875 
Q 45.796875 27.640625 41.28125 31.265625 
Q 36.765625 34.90625 28.71875 34.90625 
L 20.21875 34.90625 
L 20.21875 43.015625 
L 29.109375 43.015625 
Q 36.375 43.015625 40.234375 45.921875 
Q 44.09375 48.828125 44.09375 54.296875 
Q 44.09375 59.90625 40.109375 62.90625 
Q 36.140625 65.921875 28.71875 65.921875 
Q 24.65625 65.921875 20.015625 65.03125 
Q 15.375 64.15625 9.8125 62.3125 
L 9.8125 71.09375 
Q 15.4375 72.65625 20.34375 73.4375 
Q 25.25 74.21875 29.59375 74.21875 
Q 40.828125 74.21875 47.359375 69.109375 
Q 53.90625 64.015625 53.90625 55.328125 
Q 53.90625 49.265625 50.4375 45.09375 
Q 46.96875 40.921875 40.578125 39.3125 
" id="BitstreamVeraSans-Roman-33"/>
      </defs>
      <g transform="translate(289.70625 389.5984375)scale(0.1 -0.1)">
       <use xlink:href="#BitstreamVeraSans-Roman-33"/>
       <use x="63.623046875" xlink:href="#BitstreamVeraSans-Roman-30"/>
       <use x="127.24609375" xlink:href="#BitstreamVeraSans-Roman-30"/>
      </g>
     </g>
    </g>
    <g id="xtick_5">
     <g id="line2d_11">
      <g>
       <use style="stroke:#000000;stroke-width:0.5;" x="369.0" xlink:href="#mdbd2961011" y="378.0"/>
      </g>
     </g>
     <g id="line2d_12">
      <g>
       <use style="stroke:#000000;stroke-width:0.5;" x="369.0" xlink:href="#m7a35fba668" y="43.2"/>
      </g>
     </g>
     <g id="text_5">
      <!-- 400 -->
      <defs>
       <path d="M 37.796875 64.3125 
L 12.890625 25.390625 
L 37.796875 25.390625 
z
M 35.203125 72.90625 
L 47.609375 72.90625 
L 47.609375 25.390625 
L 58.015625 25.390625 
L 58.015625 17.1875 
L 47.609375 17.1875 
L 47.609375 0 
L 37.796875 0 
L 37.796875 17.1875 
L 4.890625 17.1875 
L 4.890625 26.703125 
z
" id="BitstreamVeraSans-Roman-34"/>
      </defs>
      <g transform="translate(359.45625 389.5984375)scale(0.1 -0.1)">
       <use xlink:href="#BitstreamVeraSans-Roman-34"/>
       <use x="63.623046875" xlink:href="#BitstreamVeraSans-Roman-30"/>
       <use x="127.24609375" xlink:href="#BitstreamVeraSans-Roman-30"/>
      </g>
     </g>
    </g>
    <g id="xtick_6">
     <g id="line2d_13">
      <g>
       <use style="stroke:#000000;stroke-width:0.5;" x="438.75" xlink:href="#mdbd2961011" y="378.0"/>
      </g>
     </g>
     <g id="line2d_14">
      <g>
       <use style="stroke:#000000;stroke-width:0.5;" x="438.75" xlink:href="#m7a35fba668" y="43.2"/>
      </g>
     </g>
     <g id="text_6">
      <!-- 500 -->
      <defs>
       <path d="M 10.796875 72.90625 
L 49.515625 72.90625 
L 49.515625 64.59375 
L 19.828125 64.59375 
L 19.828125 46.734375 
Q 21.96875 47.46875 24.109375 47.828125 
Q 26.265625 48.1875 28.421875 48.1875 
Q 40.625 48.1875 47.75 41.5 
Q 54.890625 34.8125 54.890625 23.390625 
Q 54.890625 11.625 47.5625 5.09375 
Q 40.234375 -1.421875 26.90625 -1.421875 
Q 22.3125 -1.421875 17.546875 -0.640625 
Q 12.796875 0.140625 7.71875 1.703125 
L 7.71875 11.625 
Q 12.109375 9.234375 16.796875 8.0625 
Q 21.484375 6.890625 26.703125 6.890625 
Q 35.15625 6.890625 40.078125 11.328125 
Q 45.015625 15.765625 45.015625 23.390625 
Q 45.015625 31 40.078125 35.4375 
Q 35.15625 39.890625 26.703125 39.890625 
Q 22.75 39.890625 18.8125 39.015625 
Q 14.890625 38.140625 10.796875 36.28125 
z
" id="BitstreamVeraSans-Roman-35"/>
      </defs>
      <g transform="translate(429.20625 389.5984375)scale(0.1 -0.1)">
       <use xlink:href="#BitstreamVeraSans-Roman-35"/>
       <use x="63.623046875" xlink:href="#BitstreamVeraSans-Roman-30"/>
       <use x="127.24609375" xlink:href="#BitstreamVeraSans-Roman-30"/>
      </g>
     </g>
    </g>
    <g id="xtick_7">
     <g id="line2d_15">
      <g>
       <use style="stroke:#000000;stroke-width:0.5;" x="508.5" xlink:href="#mdbd2961011" y="378.0"/>
      </g>
     </g>
     <g id="line2d_16">
      <g>
       <use style="stroke:#000000;stroke-width:0.5;" x="508.5" xlink:href="#m7a35fba668" y="43.2"/>
      </g>
     </g>
     <g id="text_7">
      <!-- 600 -->
      <defs>
       <path d="M 33.015625 40.375 
Q 26.375 40.375 22.484375 35.828125 
Q 18.609375 31.296875 18.609375 23.390625 
Q 18.609375 15.53125 22.484375 10.953125 
Q 26.375 6.390625 33.015625 6.390625 
Q 39.65625 6.390625 43.53125 10.953125 
Q 47.40625 15.53125 47.40625 23.390625 
Q 47.40625 31.296875 43.53125 35.828125 
Q 39.65625 40.375 33.015625 40.375 
M 52.59375 71.296875 
L 52.59375 62.3125 
Q 48.875 64.0625 45.09375 64.984375 
Q 41.3125 65.921875 37.59375 65.921875 
Q 27.828125 65.921875 22.671875 59.328125 
Q 17.53125 52.734375 16.796875 39.40625 
Q 19.671875 43.65625 24.015625 45.921875 
Q 28.375 48.1875 33.59375 48.1875 
Q 44.578125 48.1875 50.953125 41.515625 
Q 57.328125 34.859375 57.328125 23.390625 
Q 57.328125 12.15625 50.6875 5.359375 
Q 44.046875 -1.421875 33.015625 -1.421875 
Q 20.359375 -1.421875 13.671875 8.265625 
Q 6.984375 17.96875 6.984375 36.375 
Q 6.984375 53.65625 15.1875 63.9375 
Q 23.390625 74.21875 37.203125 74.21875 
Q 40.921875 74.21875 44.703125 73.484375 
Q 48.484375 72.75 52.59375 71.296875 
" id="BitstreamVeraSans-Roman-36"/>
      </defs>
      <g transform="translate(498.95625 389.5984375)scale(0.1 -0.1)">
       <use xlink:href="#BitstreamVeraSans-Roman-36"/>
       <use x="63.623046875" xlink:href="#BitstreamVeraSans-Roman-30"/>
       <use x="127.24609375" xlink:href="#BitstreamVeraSans-Roman-30"/>
      </g>
     </g>
    </g>
    <g id="xtick_8">
     <g id="line2d_17">
      <g>
       <use style="stroke:#000000;stroke-width:0.5;" x="578.25" xlink:href="#mdbd2961011" y="378.0"/>
      </g>
     </g>
     <g id="line2d_18">
      <g>
       <use style="stroke:#000000;stroke-width:0.5;" x="578.25" xlink:href="#m7a35fba668" y="43.2"/>
      </g>
     </g>
     <g id="text_8">
      <!-- 700 -->
      <defs>
       <path d="M 8.203125 72.90625 
L 55.078125 72.90625 
L 55.078125 68.703125 
L 28.609375 0 
L 18.3125 0 
L 43.21875 64.59375 
L 8.203125 64.59375 
z
" id="BitstreamVeraSans-Roman-37"/>
      </defs>
      <g transform="translate(568.70625 389.5984375)scale(0.1 -0.1)">
       <use xlink:href="#BitstreamVeraSans-Roman-37"/>
       <use x="63.623046875" xlink:href="#BitstreamVeraSans-Roman-30"/>
       <use x="127.24609375" xlink:href="#BitstreamVeraSans-Roman-30"/>
      </g>
     </g>
    </g>
    <g id="xtick_9">
     <g id="line2d_19">
      <g>
       <use style="stroke:#000000;stroke-width:0.5;" x="648.0" xlink:href="#mdbd2961011" y="378.0"/>
      </g>
     </g>
     <g id="line2d_20">
      <g>
       <use style="stroke:#000000;stroke-width:0.5;" x="648.0" xlink:href="#m7a35fba668" y="43.2"/>
      </g>
     </g>
     <g id="text_9">
      <!-- 800 -->
      <defs>
       <path d="M 31.78125 34.625 
Q 24.75 34.625 20.71875 30.859375 
Q 16.703125 27.09375 16.703125 20.515625 
Q 16.703125 13.921875 20.71875 10.15625 
Q 24.75 6.390625 31.78125 6.390625 
Q 38.8125 6.390625 42.859375 10.171875 
Q 46.921875 13.96875 46.921875 20.515625 
Q 46.921875 27.09375 42.890625 30.859375 
Q 38.875 34.625 31.78125 34.625 
M 21.921875 38.8125 
Q 15.578125 40.375 12.03125 44.71875 
Q 8.5 49.078125 8.5 55.328125 
Q 8.5 64.0625 14.71875 69.140625 
Q 20.953125 74.21875 31.78125 74.21875 
Q 42.671875 74.21875 48.875 69.140625 
Q 55.078125 64.0625 55.078125 55.328125 
Q 55.078125 49.078125 51.53125 44.71875 
Q 48 40.375 41.703125 38.8125 
Q 48.828125 37.15625 52.796875 32.3125 
Q 56.78125 27.484375 56.78125 20.515625 
Q 56.78125 9.90625 50.3125 4.234375 
Q 43.84375 -1.421875 31.78125 -1.421875 
Q 19.734375 -1.421875 13.25 4.234375 
Q 6.78125 9.90625 6.78125 20.515625 
Q 6.78125 27.484375 10.78125 32.3125 
Q 14.796875 37.15625 21.921875 38.8125 
M 18.3125 54.390625 
Q 18.3125 48.734375 21.84375 45.5625 
Q 25.390625 42.390625 31.78125 42.390625 
Q 38.140625 42.390625 41.71875 45.5625 
Q 45.3125 48.734375 45.3125 54.390625 
Q 45.3125 60.0625 41.71875 63.234375 
Q 38.140625 66.40625 31.78125 66.40625 
Q 25.390625 66.40625 21.84375 63.234375 
Q 18.3125 60.0625 18.3125 54.390625 
" id="BitstreamVeraSans-Roman-38"/>
      </defs>
      <g transform="translate(638.45625 389.5984375)scale(0.1 -0.1)">
       <use xlink:href="#BitstreamVeraSans-Roman-38"/>
       <use x="63.623046875" xlink:href="#BitstreamVeraSans-Roman-30"/>
       <use x="127.24609375" xlink:href="#BitstreamVeraSans-Roman-30"/>
      </g>
     </g>
    </g>
    <g id="text_10">
     <!-- Epoch -->
     <defs>
      <path d="M 9.8125 72.90625 
L 55.90625 72.90625 
L 55.90625 64.59375 
L 19.671875 64.59375 
L 19.671875 43.015625 
L 54.390625 43.015625 
L 54.390625 34.71875 
L 19.671875 34.71875 
L 19.671875 8.296875 
L 56.78125 8.296875 
L 56.78125 0 
L 9.8125 0 
z
" id="BitstreamVeraSans-Roman-45"/>
      <path d="M 30.609375 48.390625 
Q 23.390625 48.390625 19.1875 42.75 
Q 14.984375 37.109375 14.984375 27.296875 
Q 14.984375 17.484375 19.15625 11.84375 
Q 23.34375 6.203125 30.609375 6.203125 
Q 37.796875 6.203125 41.984375 11.859375 
Q 46.1875 17.53125 46.1875 27.296875 
Q 46.1875 37.015625 41.984375 42.703125 
Q 37.796875 48.390625 30.609375 48.390625 
M 30.609375 56 
Q 42.328125 56 49.015625 48.375 
Q 55.71875 40.765625 55.71875 27.296875 
Q 55.71875 13.875 49.015625 6.21875 
Q 42.328125 -1.421875 30.609375 -1.421875 
Q 18.84375 -1.421875 12.171875 6.21875 
Q 5.515625 13.875 5.515625 27.296875 
Q 5.515625 40.765625 12.171875 48.375 
Q 18.84375 56 30.609375 56 
" id="BitstreamVeraSans-Roman-6f"/>
      <path d="M 48.78125 52.59375 
L 48.78125 44.1875 
Q 44.96875 46.296875 41.140625 47.34375 
Q 37.3125 48.390625 33.40625 48.390625 
Q 24.65625 48.390625 19.8125 42.84375 
Q 14.984375 37.3125 14.984375 27.296875 
Q 14.984375 17.28125 19.8125 11.734375 
Q 24.65625 6.203125 33.40625 6.203125 
Q 37.3125 6.203125 41.140625 7.25 
Q 44.96875 8.296875 48.78125 10.40625 
L 48.78125 2.09375 
Q 45.015625 0.34375 40.984375 -0.53125 
Q 36.96875 -1.421875 32.421875 -1.421875 
Q 20.0625 -1.421875 12.78125 6.34375 
Q 5.515625 14.109375 5.515625 27.296875 
Q 5.515625 40.671875 12.859375 48.328125 
Q 20.21875 56 33.015625 56 
Q 37.15625 56 41.109375 55.140625 
Q 45.0625 54.296875 48.78125 52.59375 
" id="BitstreamVeraSans-Roman-63"/>
      <path d="M 18.109375 8.203125 
L 18.109375 -20.796875 
L 9.078125 -20.796875 
L 9.078125 54.6875 
L 18.109375 54.6875 
L 18.109375 46.390625 
Q 20.953125 51.265625 25.265625 53.625 
Q 29.59375 56 35.59375 56 
Q 45.5625 56 51.78125 48.09375 
Q 58.015625 40.1875 58.015625 27.296875 
Q 58.015625 14.40625 51.78125 6.484375 
Q 45.5625 -1.421875 35.59375 -1.421875 
Q 29.59375 -1.421875 25.265625 0.953125 
Q 20.953125 3.328125 18.109375 8.203125 
M 48.6875 27.296875 
Q 48.6875 37.203125 44.609375 42.84375 
Q 40.53125 48.484375 33.40625 48.484375 
Q 26.265625 48.484375 22.1875 42.84375 
Q 18.109375 37.203125 18.109375 27.296875 
Q 18.109375 17.390625 22.1875 11.75 
Q 26.265625 6.109375 33.40625 6.109375 
Q 40.53125 6.109375 44.609375 11.75 
Q 48.6875 17.390625 48.6875 27.296875 
" id="BitstreamVeraSans-Roman-70"/>
      <path d="M 54.890625 33.015625 
L 54.890625 0 
L 45.90625 0 
L 45.90625 32.71875 
Q 45.90625 40.484375 42.875 44.328125 
Q 39.84375 48.1875 33.796875 48.1875 
Q 26.515625 48.1875 22.3125 43.546875 
Q 18.109375 38.921875 18.109375 30.90625 
L 18.109375 0 
L 9.078125 0 
L 9.078125 75.984375 
L 18.109375 75.984375 
L 18.109375 46.1875 
Q 21.34375 51.125 25.703125 53.5625 
Q 30.078125 56 35.796875 56 
Q 45.21875 56 50.046875 50.171875 
Q 54.890625 44.34375 54.890625 33.015625 
" id="BitstreamVeraSans-Roman-68"/>
     </defs>
     <g transform="translate(353.6890625 404.2765625)scale(0.1 -0.1)">
      <use xlink:href="#BitstreamVeraSans-Roman-45"/>
      <use x="63.18359375" xlink:href="#BitstreamVeraSans-Roman-70"/>
      <use x="126.66015625" xlink:href="#BitstreamVeraSans-Roman-6f"/>
      <use x="187.841796875" xlink:href="#BitstreamVeraSans-Roman-63"/>
      <use x="242.822265625" xlink:href="#BitstreamVeraSans-Roman-68"/>
     </g>
    </g>
   </g>
   <g id="matplotlib.axis_2">
    <g id="ytick_1">
     <g id="line2d_21">
      <defs>
       <path d="M 0 0 
L 4 0 
" id="m69002fd731" style="stroke:#000000;stroke-width:0.5;"/>
      </defs>
      <g>
       <use style="stroke:#000000;stroke-width:0.5;" x="90.0" xlink:href="#m69002fd731" y="378.0"/>
      </g>
     </g>
     <g id="line2d_22">
      <defs>
       <path d="M 0 0 
L -4 0 
" id="mde608beeed" style="stroke:#000000;stroke-width:0.5;"/>
      </defs>
      <g>
       <use style="stroke:#000000;stroke-width:0.5;" x="648.0" xlink:href="#mde608beeed" y="378.0"/>
      </g>
     </g>
     <g id="text_11">
      <!-- 0 -->
      <g transform="translate(79.6375 380.759375)scale(0.1 -0.1)">
       <use xlink:href="#BitstreamVeraSans-Roman-30"/>
      </g>
     </g>
    </g>
    <g id="ytick_2">
     <g id="line2d_23">
      <g>
       <use style="stroke:#000000;stroke-width:0.5;" x="90.0" xlink:href="#m69002fd731" y="294.3"/>
      </g>
     </g>
     <g id="line2d_24">
      <g>
       <use style="stroke:#000000;stroke-width:0.5;" x="648.0" xlink:href="#mde608beeed" y="294.3"/>
      </g>
     </g>
     <g id="text_12">
      <!-- 50 -->
      <g transform="translate(73.275 297.059375)scale(0.1 -0.1)">
       <use xlink:href="#BitstreamVeraSans-Roman-35"/>
       <use x="63.623046875" xlink:href="#BitstreamVeraSans-Roman-30"/>
      </g>
     </g>
    </g>
    <g id="ytick_3">
     <g id="line2d_25">
      <g>
       <use style="stroke:#000000;stroke-width:0.5;" x="90.0" xlink:href="#m69002fd731" y="210.6"/>
      </g>
     </g>
     <g id="line2d_26">
      <g>
       <use style="stroke:#000000;stroke-width:0.5;" x="648.0" xlink:href="#mde608beeed" y="210.6"/>
      </g>
     </g>
     <g id="text_13">
      <!-- 100 -->
      <g transform="translate(66.9125 213.359375)scale(0.1 -0.1)">
       <use xlink:href="#BitstreamVeraSans-Roman-31"/>
       <use x="63.623046875" xlink:href="#BitstreamVeraSans-Roman-30"/>
       <use x="127.24609375" xlink:href="#BitstreamVeraSans-Roman-30"/>
      </g>
     </g>
    </g>
    <g id="ytick_4">
     <g id="line2d_27">
      <g>
       <use style="stroke:#000000;stroke-width:0.5;" x="90.0" xlink:href="#m69002fd731" y="126.9"/>
      </g>
     </g>
     <g id="line2d_28">
      <g>
       <use style="stroke:#000000;stroke-width:0.5;" x="648.0" xlink:href="#mde608beeed" y="126.9"/>
      </g>
     </g>
     <g id="text_14">
      <!-- 150 -->
      <g transform="translate(66.9125 129.659375)scale(0.1 -0.1)">
       <use xlink:href="#BitstreamVeraSans-Roman-31"/>
       <use x="63.623046875" xlink:href="#BitstreamVeraSans-Roman-35"/>
       <use x="127.24609375" xlink:href="#BitstreamVeraSans-Roman-30"/>
      </g>
     </g>
    </g>
    <g id="ytick_5">
     <g id="line2d_29">
      <g>
       <use style="stroke:#000000;stroke-width:0.5;" x="90.0" xlink:href="#m69002fd731" y="43.2"/>
      </g>
     </g>
     <g id="line2d_30">
      <g>
       <use style="stroke:#000000;stroke-width:0.5;" x="648.0" xlink:href="#mde608beeed" y="43.2"/>
      </g>
     </g>
     <g id="text_15">
      <!-- 200 -->
      <g transform="translate(66.9125 45.959375)scale(0.1 -0.1)">
       <use xlink:href="#BitstreamVeraSans-Roman-32"/>
       <use x="63.623046875" xlink:href="#BitstreamVeraSans-Roman-30"/>
       <use x="127.24609375" xlink:href="#BitstreamVeraSans-Roman-30"/>
      </g>
     </g>
    </g>
    <g id="text_16">
     <!-- CTC loss -->
     <defs>
      <path d="M -0.296875 72.90625 
L 61.375 72.90625 
L 61.375 64.59375 
L 35.5 64.59375 
L 35.5 0 
L 25.59375 0 
L 25.59375 64.59375 
L -0.296875 64.59375 
z
" id="BitstreamVeraSans-Roman-54"/>
      <path d="M 64.40625 67.28125 
L 64.40625 56.890625 
Q 59.421875 61.53125 53.78125 63.8125 
Q 48.140625 66.109375 41.796875 66.109375 
Q 29.296875 66.109375 22.65625 58.46875 
Q 16.015625 50.828125 16.015625 36.375 
Q 16.015625 21.96875 22.65625 14.328125 
Q 29.296875 6.6875 41.796875 6.6875 
Q 48.140625 6.6875 53.78125 8.984375 
Q 59.421875 11.28125 64.40625 15.921875 
L 64.40625 5.609375 
Q 59.234375 2.09375 53.4375 0.328125 
Q 47.65625 -1.421875 41.21875 -1.421875 
Q 24.65625 -1.421875 15.125 8.703125 
Q 5.609375 18.84375 5.609375 36.375 
Q 5.609375 53.953125 15.125 64.078125 
Q 24.65625 74.21875 41.21875 74.21875 
Q 47.75 74.21875 53.53125 72.484375 
Q 59.328125 70.75 64.40625 67.28125 
" id="BitstreamVeraSans-Roman-43"/>
      <path d="M 44.28125 53.078125 
L 44.28125 44.578125 
Q 40.484375 46.53125 36.375 47.5 
Q 32.28125 48.484375 27.875 48.484375 
Q 21.1875 48.484375 17.84375 46.4375 
Q 14.5 44.390625 14.5 40.28125 
Q 14.5 37.15625 16.890625 35.375 
Q 19.28125 33.59375 26.515625 31.984375 
L 29.59375 31.296875 
Q 39.15625 29.25 43.1875 25.515625 
Q 47.21875 21.78125 47.21875 15.09375 
Q 47.21875 7.46875 41.1875 3.015625 
Q 35.15625 -1.421875 24.609375 -1.421875 
Q 20.21875 -1.421875 15.453125 -0.5625 
Q 10.6875 0.296875 5.421875 2 
L 5.421875 11.28125 
Q 10.40625 8.6875 15.234375 7.390625 
Q 20.0625 6.109375 24.8125 6.109375 
Q 31.15625 6.109375 34.5625 8.28125 
Q 37.984375 10.453125 37.984375 14.40625 
Q 37.984375 18.0625 35.515625 20.015625 
Q 33.0625 21.96875 24.703125 23.78125 
L 21.578125 24.515625 
Q 13.234375 26.265625 9.515625 29.90625 
Q 5.8125 33.546875 5.8125 39.890625 
Q 5.8125 47.609375 11.28125 51.796875 
Q 16.75 56 26.8125 56 
Q 31.78125 56 36.171875 55.265625 
Q 40.578125 54.546875 44.28125 53.078125 
" id="BitstreamVeraSans-Roman-73"/>
      <path d="M 9.421875 75.984375 
L 18.40625 75.984375 
L 18.40625 0 
L 9.421875 0 
z
" id="BitstreamVeraSans-Roman-6c"/>
      <path id="BitstreamVeraSans-Roman-20"/>
     </defs>
     <g transform="translate(59.8328125 231.8796875)rotate(-90.0)scale(0.1 -0.1)">
      <use xlink:href="#BitstreamVeraSans-Roman-43"/>
      <use x="69.82421875" xlink:href="#BitstreamVeraSans-Roman-54"/>
      <use x="130.830078125" xlink:href="#BitstreamVeraSans-Roman-43"/>
      <use x="200.654296875" xlink:href="#BitstreamVeraSans-Roman-20"/>
      <use x="232.44140625" xlink:href="#BitstreamVeraSans-Roman-6c"/>
      <use x="260.224609375" xlink:href="#BitstreamVeraSans-Roman-6f"/>
      <use x="321.40625" xlink:href="#BitstreamVeraSans-Roman-73"/>
      <use x="373.505859375" xlink:href="#BitstreamVeraSans-Roman-73"/>
     </g>
    </g>
   </g>
   <g id="text_17">
    <!-- Loss -->
    <defs>
     <path d="M 9.8125 72.90625 
L 19.671875 72.90625 
L 19.671875 8.296875 
L 55.171875 8.296875 
L 55.171875 0 
L 9.8125 0 
z
" id="BitstreamVeraSans-Roman-4c"/>
    </defs>
    <g transform="translate(355.7353125 38.2)scale(0.12 -0.12)">
     <use xlink:href="#BitstreamVeraSans-Roman-4c"/>
     <use x="55.697265625" xlink:href="#BitstreamVeraSans-Roman-6f"/>
     <use x="116.87890625" xlink:href="#BitstreamVeraSans-Roman-73"/>
     <use x="168.978515625" xlink:href="#BitstreamVeraSans-Roman-73"/>
    </g>
   </g>
   <g id="legend_1">
    <g id="patch_7">
     <path d="M 551.83125 88.36125 
L 642 88.36125 
L 642 49.2 
L 551.83125 49.2 
z
" style="fill:#ffffff;stroke:#000000;stroke-linejoin:miter;"/>
    </g>
    <g id="line2d_31">
     <path d="M 560.23125 58.918125 
L 577.03125 58.918125 
" style="fill:none;stroke:#0000ff;stroke-linecap:square;"/>
    </g>
    <g id="line2d_32"/>
    <g id="text_18">
     <!-- loss -->
     <g transform="translate(590.23125 63.118125)scale(0.12 -0.12)">
      <use xlink:href="#BitstreamVeraSans-Roman-6c"/>
      <use x="27.783203125" xlink:href="#BitstreamVeraSans-Roman-6f"/>
      <use x="88.96484375" xlink:href="#BitstreamVeraSans-Roman-73"/>
      <use x="141.064453125" xlink:href="#BitstreamVeraSans-Roman-73"/>
     </g>
    </g>
    <g id="line2d_33">
     <path d="M 560.23125 76.531875 
L 577.03125 76.531875 
" style="fill:none;stroke:#008000;stroke-linecap:square;"/>
    </g>
    <g id="line2d_34"/>
    <g id="text_19">
     <!-- val_loss -->
     <defs>
      <path d="M 2.984375 54.6875 
L 12.5 54.6875 
L 29.59375 8.796875 
L 46.6875 54.6875 
L 56.203125 54.6875 
L 35.6875 0 
L 23.484375 0 
z
" id="BitstreamVeraSans-Roman-76"/>
      <path d="M 34.28125 27.484375 
Q 23.390625 27.484375 19.1875 25 
Q 14.984375 22.515625 14.984375 16.5 
Q 14.984375 11.71875 18.140625 8.90625 
Q 21.296875 6.109375 26.703125 6.109375 
Q 34.1875 6.109375 38.703125 11.40625 
Q 43.21875 16.703125 43.21875 25.484375 
L 43.21875 27.484375 
z
M 52.203125 31.203125 
L 52.203125 0 
L 43.21875 0 
L 43.21875 8.296875 
Q 40.140625 3.328125 35.546875 0.953125 
Q 30.953125 -1.421875 24.3125 -1.421875 
Q 15.921875 -1.421875 10.953125 3.296875 
Q 6 8.015625 6 15.921875 
Q 6 25.140625 12.171875 29.828125 
Q 18.359375 34.515625 30.609375 34.515625 
L 43.21875 34.515625 
L 43.21875 35.40625 
Q 43.21875 41.609375 39.140625 45 
Q 35.0625 48.390625 27.6875 48.390625 
Q 23 48.390625 18.546875 47.265625 
Q 14.109375 46.140625 10.015625 43.890625 
L 10.015625 52.203125 
Q 14.9375 54.109375 19.578125 55.046875 
Q 24.21875 56 28.609375 56 
Q 40.484375 56 46.34375 49.84375 
Q 52.203125 43.703125 52.203125 31.203125 
" id="BitstreamVeraSans-Roman-61"/>
      <path d="M 50.984375 -16.609375 
L 50.984375 -23.578125 
L -0.984375 -23.578125 
L -0.984375 -16.609375 
z
" id="BitstreamVeraSans-Roman-5f"/>
     </defs>
     <g transform="translate(590.23125 80.731875)scale(0.12 -0.12)">
      <use xlink:href="#BitstreamVeraSans-Roman-76"/>
      <use x="59.1796875" xlink:href="#BitstreamVeraSans-Roman-61"/>
      <use x="120.458984375" xlink:href="#BitstreamVeraSans-Roman-6c"/>
      <use x="148.2421875" xlink:href="#BitstreamVeraSans-Roman-5f"/>
      <use x="198.2421875" xlink:href="#BitstreamVeraSans-Roman-6c"/>
      <use x="226.025390625" xlink:href="#BitstreamVeraSans-Roman-6f"/>
      <use x="287.20703125" xlink:href="#BitstreamVeraSans-Roman-73"/>
      <use x="339.306640625" xlink:href="#BitstreamVeraSans-Roman-73"/>
     </g>
    </g>
   </g>
  </g>
 </g>
 <defs>
  <clipPath id="pf1fdcee37b">
   <rect height="334.8" width="558.0" x="90.0" y="43.2"/>
  </clipPath>
 </defs>
</svg>
